<?xml version="1.0" encoding="UTF-8"?>
<svg id="Layer_1" xmlns="http://www.w3.org/2000/svg" version="1.1" viewBox="0 0 512 512">
  <!-- Generator: Adobe Illustrator 29.1.0, SVG Export Plug-In . SVG Version: 2.1.0 Build 142)  -->
  <defs>
    <style>
      .st0 {
        fill: #f05a14;
      }
    </style>
  </defs>
  <path class="st0" d="M145.75,151.9v78.89c0,14.82-12.25,24.75-24.81,24.75-17.15,0-24.75-14.48-24.75-24.75v-60.63c0-11.82-5.91-18.26-18.26-18.26h-18.35v67.55c0,46.93,22.31,70.5,63.54,70.5,34.36,0,59.24-19.91,59.24-68.9v-69.16h-36.61ZM192.96,151.9v17.21c0,8.17,5.85,15.74,15.21,17.11h32.88v100.99h36.61v-100.99h42.13l-13.77-34.32h-113.06ZM416.82,151.9l-29.39,80.82-30.79-80.82h-38.68s48.93,122.29,48.93,122.29c3.14,7.86,10.76,13.01,19.22,13.01h0c8.53,0,16.19-5.23,19.29-13.18l47.64-122.13h-36.21Z"/>
  <path class="st0" d="M102.78,333.45l7.12,17.38h.3l7.12-17.38h6.74v25.86h-5.3v-16.83h-.21l-6.69,16.71h-3.61l-6.69-16.77h-.21v16.9h-5.3v-25.86h6.74ZM178.07,333.45h17.43v4.51h-11.96v6.16h11.06v4.51h-11.06v6.18h12.01v4.51h-17.48v-25.86ZM249.36,359.31v-25.86h9.24c7.8,0,12.58,4.85,12.58,12.91s-4.77,12.96-12.65,12.96h-9.17ZM258.3,354.62c4.86,0,7.42-2.5,7.42-8.27s-2.56-8.22-7.41-8.22h-3.48v16.49h3.47ZM330.19,359.31h-5.47v-25.86h5.47v25.86ZM382.78,359.31l8.93-25.86h7.05l8.92,25.86h-5.86l-1.92-5.9h-9.33l-1.92,5.9h-5.86ZM398.52,349.14l-3.18-9.79h-.2l-3.18,9.79h6.57Z"/>
</svg>