<?xml version="1.0" encoding="UTF-8"?>
<svg id="Layer_1" xmlns="http://www.w3.org/2000/svg" version="1.1" xmlns:xlink="http://www.w3.org/1999/xlink" viewBox="0 0 845.27 761.36">
  <!-- Generator: Adobe Illustrator 29.1.0, SVG Export Plug-In . SVG Version: 2.1.0 Build 142)  -->
  <defs>
    <style>
      .st0 {
        clip-path: url(#clippath-1);
      }

      .st1 {
        clip-rule: evenodd;
        fill: none;
      }

      .st2 {
        fill: url(#_Безымянный_градиент_2);
      }

      .st3 {
        fill: url(#_Безымянный_градиент_3);
      }

      .st4 {
        clip-path: url(#clippath);
      }
    </style>
    <clipPath id="clippath">
      <path class="st1" d="M541.15,487.65c-4.94-2.4-2.96-10.3-1.27-12.13,1.69-1.83,5.22-2.12,6.49-2.26h14.53v15.94h-12.41c-2.54,0-4.51-.42-7.34-1.55ZM592.37,545.68l7.48,19.61h-14.95l7.48-19.61ZM615.22,585.2v-.02l-18.48-48.81c-.28-.56-.85-.99-1.41-.99h-5.5c-.71,0-1.13.42-1.41.99l-18.48,48.81c-.14.42-.14.85.14,1.27.28.28.71.57,1.13.57h4.66c.7,0,1.27-.42,1.41-.99l5.22-14.11h19.89l5.22,14.11c.28.56.85.99,1.41.99h4.66c.42,0,.85-.14,1.13-.57.28-.28.42-.83.42-1.25ZM366.92,466.49h-5.52c-.42,0-.83.15-1.11.42l-15.24,17.49v-16.51c0-.71-.56-1.41-1.41-1.41h-4.37c-.71,0-1.41.56-1.41,1.41v16.51l-15.24-17.49c-.28-.28-.69-.42-1.11-.42h-5.52c-.57,0-.99.28-1.27.85-.14.57-.14,1.13.28,1.55l17.07,19.33-19.33,27.65c-.28.56-.42,1.13-.14,1.55.28.42.7.71,1.27.71h5.36c.42,0,.85-.14,1.13-.56l16.93-24.13.71.85v22.43c0,.7.56,1.41,1.41,1.41h4.37c.71,0,1.41-.56,1.41-1.41v-22.43l.71-.85,16.79,24.13c.28.28.7.56,1.13.56h5.22c.56,0,.99-.28,1.27-.71.14-.56.14-1.13-.14-1.55l-19.33-27.65,17.07-19.33c.42-.42.56-.99.28-1.55-.14-.56-.71-.85-1.27-.85ZM439.72,494.7h11.99c3.1,0,5.93.7,8.18,1.97,1.97,1.13,3.1,3.39,2.96,6.77,0,5.22-2.26,6.07-2.96,6.35-2.4.99-5.22,1.41-8.47,1.41h-11.71v-16.51ZM439.86,473.26h9.31c3.81,0,6.77.57,8.89,1.69,1.84,1.13,2.68,2.82,2.68,5.64,0,4.8-2.12,5.64-2.82,5.93-2.26.99-4.8,1.55-7.62,1.55h-10.44v-14.81ZM470.47,504.74v-1.15c0-3.24-.99-6.07-2.82-8.75-1.27-1.83-2.82-3.24-4.8-4.23,1.13-.85,2.26-1.97,3.25-3.24,1.41-2.26,2.12-4.66,2.12-7.33v-1.13c-.57-4.51-2.54-7.76-6.07-9.59-3.24-1.55-6.77-2.54-10.58-2.68h-17.49c-.71,0-1.41.56-1.41,1.41v48.81c0,.71.56,1.41,1.41,1.41h18.62c3.53,0,6.91-.56,10.16-1.69,3.53-1.27,5.93-4.23,7.19-8.75v-.14l.28-1.83c0-.42.14-.7.14-1.11ZM271.98,587.16h4.51c.85,0,1.41-.71,1.41-1.41v-43.45h24.97v43.45c0,.85.71,1.41,1.41,1.41h4.51c.85,0,1.41-.71,1.41-1.41v-48.81c0-.85-.56-1.41-1.41-1.41h-36.82c-.85,0-1.41.71-1.41,1.41v48.81c0,.85.71,1.41,1.41,1.41ZM418.56,466.49h-5.22c-.42,0-.99.28-1.27.71l-24.55,37.53v-36.68c0-.85-.7-1.41-1.41-1.41h-4.52c-.85,0-1.41.7-1.41,1.41v48.81c0,.85.71,1.41,1.41,1.41h4.8c.42,0,.99-.28,1.27-.71l24.83-37.95v37.24c0,.85.71,1.41,1.41,1.41h4.51c.85-.14,1.55-.71,1.55-1.55v-48.81c0-.85-.7-1.41-1.41-1.41ZM330.95,542.3h10.86c2.96,0,5.5.7,7.48,1.83,1.83,1.13,2.68,3.1,2.68,6.35,0,3.67-1.13,5.93-3.24,6.91-2.4,1.13-5.36,1.69-8.75,1.69h-9.03v-16.79ZM325.02,587.16h4.51c.71,0,1.41-.56,1.41-1.41v-19.75h8.89c5.08,0,9.59-.99,13.4-2.96,4.23-2.12,6.35-6.35,6.35-12.56,0-5.5-1.83-9.45-5.22-11.71-3.39-2.12-7.48-3.24-12.27-3.24h-17.07c-.71,0-1.41.57-1.41,1.41v48.81c0,.71.57,1.41,1.41,1.41ZM367.77,587.3h4.8c.42,0,.99-.28,1.27-.71l24.83-37.95v37.24c0,.85.71,1.41,1.41,1.41h4.51c.85,0,1.41-.71,1.41-1.41v-48.81c.14-.99-.56-1.55-1.27-1.55h-5.22c-.42,0-.99.28-1.27.71l-24.55,37.53v-36.68c0-.85-.7-1.41-1.41-1.41h-4.51c-.85,0-1.41.71-1.41,1.41v48.81c0,.85.71,1.41,1.41,1.41ZM426.74,542.3h10.86c2.96,0,5.5.7,7.48,1.83,1.83,1.13,2.68,3.1,2.68,6.35,0,3.67-.99,5.93-3.24,6.91-2.4,1.13-5.36,1.69-8.75,1.69h-9.03v-16.79ZM420.82,587.16h4.51c.71,0,1.41-.56,1.41-1.41v-19.75h8.89c5.08,0,9.59-.99,13.4-2.96,4.23-2.12,6.35-6.35,6.35-12.56,0-5.5-1.69-9.45-5.22-11.71-3.39-2.12-7.48-3.24-12.27-3.24h-17.07c-.71,0-1.41.57-1.41,1.41v48.81c0,.71.56,1.41,1.41,1.41ZM472.45,575.45c-2.68-4.23-3.95-9.03-3.95-14.25v-1.27c.14-2.82.56-5.64,1.41-8.32.85-2.54,2.26-4.8,4.37-6.63,1.41-1.27,3.1-2.26,4.94-2.96,1.83-.71,3.81-.99,5.64-.99h1.69c5.08.42,8.61,2.4,10.72,6.07,2.26,3.81,3.53,8.04,3.81,12.56,0,0,.14.56.14.85h-.28v1.98c0,.28-.14,1.97-.14,2.4l-.14,1.41c-.56,4.23-2.26,7.9-5.08,10.86-2.82,2.96-6.35,4.37-10.86,4.37-5.78,0-9.73-1.98-12.27-6.07ZM484.74,534.25h-.16c-7.34,0-13.12,2.68-17.21,7.9-4.09,5.08-6.07,11.57-6.07,19.05s1.97,13.54,5.78,18.76c3.95,5.5,10.02,8.18,18.06,8.18s13.97-2.82,17.92-8.18c3.81-5.22,5.78-11.57,5.78-18.76,0,0-.14-1.55-.14-1.84-.28-5.5-1.83-10.72-4.65-15.52-2.96-5.08-7.76-8.18-13.97-9.17-2.47-.39-4.58-.42-5.34-.42ZM498.97,476.64l7.48,19.61h-14.95l7.48-19.61ZM501.79,466.49h-5.5c-.71,0-1.13.42-1.41.99l-18.48,48.81c-.14.42-.14.85.14,1.27.28.28.7.56,1.13.56h4.66c.71,0,1.27-.42,1.41-.99l5.22-14.11h19.89l5.22,14.11c.28.56.85.99,1.41.99h4.65c.57,0,.99-.14,1.41-.56.28-.28.28-.85.14-1.27l-18.48-48.81c-.28-.56-.85-.99-1.41-.99ZM527.19,579.54c.28-.99.56-1.97.71-2.96.28-.99.42-1.97.56-2.96.14-.85.28-1.83.28-2.54.14-2.4.28-4.65.42-6.77.14-2.26.28-4.37.28-6.49.14-.99.14-2.11.14-3.24v-12.13h20.74v37.81h-23.28c0-.28.14-.42.14-.71ZM517.45,598.3h4.52c.71,0,1.41-.56,1.41-1.41v-9.59h31.04v9.59c0,.71.57,1.41,1.41,1.41h4.52c.71,0,1.41-.56,1.41-1.41v-15.09c0-.85-.71-1.55-1.27-1.41h-2.4v-43.45c0-.71-.56-1.41-1.41-1.41h-32.73c-.71,0-1.41.57-1.41,1.41v13.26c0,1.13-.14,2.26-.14,3.53,0,2.96-.14,5.93-.28,8.75-.14,2.82-.28,5.36-.56,7.48-.14.85-.14,1.69-.28,2.68-.14.85-.28,1.84-.42,2.68-.14,1.13-.42,2.12-.71,3.1-.28.71-.42,1.41-.7,1.97h-1.98c-.71,0-1.41.57-1.41,1.41v15.09c0,.71.57,1.41,1.41,1.41ZM531.7,518.26h5.08c.57,0,.99-.28,1.27-.85.56-1.13.99-2.68,1.13-4.23.14-1.55.28-3.1.42-4.8l.28-4.37c0-.99.14-1.69.28-2.54.42-2.26,1.13-3.67,2.4-4.23,1.55-.71,3.38-.99,5.78-.99h12.7v20.46c0,.7.56,1.41,1.41,1.41h4.51c.71,0,1.41-.56,1.41-1.41v-48.81c0-.6-.4-1.19-.95-1.19-.1,0-.21.02-.32.06h-20.6c-.7,0-1.27.14-1.97.14-1.27,0-2.54.28-3.67.56-1.27.28-2.4.85-3.52,1.41-1.98,1.13-3.53,2.68-4.66,4.51-1.13,1.83-2.68,5.36-2.26,8.89.42,3.53,1.13,4.94,2.54,7.19.99,1.41,2.26,2.68,3.67,3.67-1.55.99-2.54,2.26-2.96,3.67-.56,1.83-.99,4.09-1.13,6.63,0,0-.14.71-.14.85l-.56,7.33c0,.28-.14,1.27-.14,1.55-.14.42-.28.85-.42,1.13-.14.28-.28.56-.56.85-.28.28-.42.57-.42.99v.71c0,.71.56,1.41,1.41,1.41Z"/>
    </clipPath>
    <linearGradient id="_Безымянный_градиент_3" data-name="Безымянный градиент 3" x1="304.64" y1="654.52" x2="557.12" y2="430.89" gradientUnits="userSpaceOnUse">
      <stop offset="0" stop-color="#199067"/>
      <stop offset="1" stop-color="#30a87c"/>
    </linearGradient>
    <clipPath id="clippath-1">
      <path class="st1" d="M522.76,313.46h-.03c-3.11,0-6.47,3.43-7.14,6.87,3.96,2.96,10.48,5.54,16.05-4.03-5.11.24-4.52-1.97-7.85-2.7-.34-.09-.68-.14-1.02-.14M439.75,289.31c-3.22,2.07-3.26,8.39-.76,12.09,5.5-1.05,12.68-4.38,9.22-16.46-3.7,4.34-5.09,2.2-8.46,4.37ZM419.31,305.46h-.16c-4.24.08-7.94,5.97-7.6,10.87,5.7,2.19,14.35,3.1,17.89-10.11-3.76,1.21-5.19.59-6.75-.03-.91-.36-1.88-.72-3.38-.72ZM424.58,282.87c-2.65,3.69-.04,10.6,4.3,13.51,5.69-3.54,11.99-10.31,3-21.92-2.16,6.3-4.63,4.58-7.3,8.4ZM355.36,320.33c6.25,2.3,4.31,4.45,8.02,7.07,3.71,2.62,10.87.25,14.19-3.62-2.08-3.47-5.62-7.28-11.29-7.28-3.01,0-6.61,1.07-10.92,3.83ZM367.04,343.39c3.64-1.13,4.99-.55,6.44.03.91.36,1.86.73,3.43.67,4.09-.14,8.32-5.78,8.46-10.44-1.72-.74-3.77-1.33-5.93-1.33-4.39,0-9.2,2.45-12.41,11.07ZM379.89,355.5c3.4-1.62,4.8-1.28,6.28-.95.97.22,1.97.44,3.6.1,4.09-.7,7.34-6.91,6.77-11.71-1.2-.28-2.53-.47-3.9-.47-4.96,0-10.54,2.54-12.74,13.03ZM405.18,285.04c4.65,3.51,2.68,5.04,5.1,8.22,2.42,3.18,8.83,2.74,12.47-.07-1.16-4.39-3.88-9.59-10.65-9.59-1.95,0-4.23.43-6.91,1.44ZM384.64,309.66c5.08,4.37,2.54,5.92,4.94,9.73,2.4,3.81,9.73,3.95,13.97,1.13-.81-5.22-3.63-11.87-12.37-11.87-1.89,0-4.05.31-6.53,1.01ZM396.19,300.22c-.07,3.97,5.26,7.72,9.86,7.69,2.41-5.31,3.75-13.32-8.59-17.35,1.48,5.64-1.02,5.6-1.26,9.66ZM495.98,314.88c-.71-.08-1.44-.17-2.54.16-2.75.84-4.17,5.22-3.15,8.39,4.15.45,9.88-.4,9.98-9.62-2.18,1.32-3.21,1.19-4.29,1.07ZM465.6,304.17c2.1,5.45,9.31,5.92,11.02,8.61,1.88-5.48,2.05-14.24-10.61-17.16.82,3.76-1.82,4.76-.41,8.55ZM429.34,315.92c2.53,1.43,1.71,3.61,4.7,4.81,2.46,1.01,4.86.19,6.93-.64,1.58-.63,2.98-1.26,4.06-1.07-1.48-2.73-4.2-5.8-8.36-5.8-2.07,0-4.51.76-7.33,2.7ZM415,339.44c2.04-2.07,3.93-.71,5.87-3.27,2.86-3.72.17-8.75,1.24-11.05-4.53,1.07-10.51,4.6-7.11,14.32ZM403.54,335.56c-1.3-1.49-.37-5.84-3.3-8.01-1.07-.8-1.89-.77-2.73-.73-.72.03-1.45.06-2.37-.45-.45,8,4.78,9.36,8.4,9.19ZM429.95,336.2c.6,3,2.44,2.51,3.28,5.11,5.67-7.3,2.4-12.67-.59-15.34.04,2.44-3.58,5.86-2.68,10.23ZM403,352.48c-4.59.78-6.08,6.41-8.36,7.44,4.02,2.29,10.92,3.74,15-5.8-2.7,0-3.32-1.7-5.77-1.7-.27,0-.55.02-.87.06ZM404.8,369.05c2.68.14,2.82,1.98,5.64,1.55,4.09-.56,5.5-5.36,7.48-6.21-1.41-.82-3.27-1.57-5.23-1.57-2.74,0-5.67,1.46-7.89,6.23ZM444.4,350.41c1.17-.06,1.89.25,2.56.55.87.4,1.66.8,3.21.39,4.01-.99,4.91-5.91,6.78-6.96-1.27-.57-2.86-1.06-4.51-1.06-2.98,0-6.16,1.58-8.04,7.08ZM503.95,296.25h-.03c-4.31,0-9.16,4.34-10.42,8.95,5.15,4.41,13.97,8.53,22.6-4.17-6.95-.17-6.04-3.07-10.54-4.55-.52-.15-1.06-.22-1.6-.22ZM474.49,290.74c1.9,6.74,10.49,7.33,12.89,10.15,2.12-5.4.29-16.23-12.1-19.71.49,3.98-.86,5.61-.79,9.57ZM456.98,308.95h-.04c-.95,0-1.96.1-3.03.31,1.69,2.5,1.2,3.97,2.58,6.52,2.16,2.46,5.38,2.34,8.06,2.22,1.45-.07,2.75-.13,3.63.21-.19-3.74-3.96-9.26-11.19-9.26ZM463.47,331.42c2.08,2.18,1.84,3.72,3.63,6,2.46,2,5.5,1.45,8.06.9,1.52-.33,2.89-.65,3.86-.45-.72-3.26-4.5-7.45-10.37-7.45-1.58,0-3.31.3-5.18,1.01ZM455.47,297.43h-.06c-.43,0-.9.02-1.44.07-3.39.28-5.78,6.07-7.9,7.62,3.67,1.98,12.55,2.12,15.09-7.19-2.47,0-3.47-.49-5.69-.49ZM445.22,270.43c10.44-14.67,27.37-23.42,45.29-23.42,30.61,0,55.58,24.97,55.58,55.58,0,18.2-10.44,34.14-20.32,42.89-3.67,3.39-13.54,11.43-24.12,19.89-12.84,10.3-28.07,22.71-41.06,33.58-4.09-7.62-11.04-15.2-15.41-24.23-6.49-13.26-3.51-39.25,14.99-44.62,12.51-3.63,19.51,0,29.35,0,10.72,0,14.62-8.77,25.39-9.73-7.48-1.27-12.7,3.53-19.89,4.37-7.19.85-11.78-1.8-20.74-1.97,14.15-9.67,18.27-15.1,19.47-29.91-7.07,14.81-14.07,25.13-40,31.61-7.27-27.07-15.35-17.24-29.56-29.36,9.49,16.18,20.51,4.81,23.65,32.1-4.37,2.54-20.4,20.38-21.25,30.54-6.07-5.78-20.46-19.33-16.37-52.62-2.12,2.26-5.64,8.89-5.36,20.6,0,0,.42,10.16.85,11.99-15.17,0-16.47-10.24-27.37-13.4,12.33,9.81,10.56,17.7,27.93,19.47,0,0,4.66,13.83,13.12,20.74,8.32,6.91,17.35,23.28,19.61,38.94.56,4.37.42,9.73.99,13.83-13.26-13.54-43.73-37.81-64.47-54.32-8.75-6.91-16.08-12.7-20.03-16.08-14.39-12.27-21.73-27.09-21.73-44.02,0-30.76,24.97-55.59,56.01-55.87,17.92,0,34.85,8.75,45.29,23.42l5.08,7.19,5.08-7.19ZM439.86,257.17c-12.84-14.25-31.18-22.43-50.37-22.43-37.67,0-68.14,30.62-68.14,68.14,0,20.74,8.75,38.8,26.1,53.47,4.09,3.38,11.43,9.31,20.32,16.36,21.3,16.93,56.85,45.15,66.31,56.43,1.55,1.84,3.53,2.82,5.93,2.82,2.12,0,4.23-.99,5.64-2.54,9.74-10.58,40.91-35.69,63.77-54.17,11.01-8.89,20.6-16.65,24.55-20.18,11.71-10.44,24.41-29.77,24.41-52.2,0-37.53-30.61-68.14-68.14-68.14-19.19,0-37.53,8.32-50.37,22.43ZM491.76,277.76c-3.39,3.38-1.84,10.86,2.12,14.67,6.35-2.68,14.11-8.6,6.77-22.01-3.38,6.07-5.5,3.95-8.89,7.34Z"/>
    </clipPath>
    <linearGradient id="_Безымянный_градиент_2" data-name="Безымянный градиент 2" x1="328.09" y1="479.26" x2="506.43" y2="246.45" gradientUnits="userSpaceOnUse">
      <stop offset="0" stop-color="#199067"/>
      <stop offset=".57" stop-color="#29a175"/>
      <stop offset="1" stop-color="#30a87c"/>
    </linearGradient>
  </defs>
  <g class="st4">
    <rect class="st3" x="270.56" y="465.83" width="344.66" height="132.47"/>
  </g>
  <g class="st0">
    <rect class="st2" x="321.35" y="234.74" width="237.01" height="197.23"/>
  </g>
</svg>