<?xml version="1.0" encoding="UTF-8"?>
<svg id="Layer_1" xmlns="http://www.w3.org/2000/svg" version="1.1" viewBox="0 0 1920 1080">
  <!-- Generator: Adobe Illustrator 29.1.0, SVG Export Plug-In . SVG Version: 2.1.0 Build 142)  -->
  <defs>
    <style>
      .st0 {
        fill: #fff;
      }

      .st1 {
        fill: #037c3f;
      }
    </style>
  </defs>
  <g>
    <g>
      <path class="st0" d="M725.11,277.71c0,9.52-7.75,17.26-17.27,17.26-9.52,0-17.26-7.75-17.26-17.27,0-9.52,7.75-17.26,17.27-17.26,9.52,0,17.26,7.75,17.26,17.27Z"/>
      <path class="st1" d="M707.84,297.3h0c-5.23,0-10.15-2.04-13.85-5.75-3.7-3.71-5.74-8.63-5.74-13.86,0-10.8,8.8-19.59,19.6-19.59h0c5.23,0,10.15,2.05,13.85,5.75,3.7,3.71,5.74,8.63,5.74,13.85h-2.34s2.34,0,2.34,0c0,10.8-8.8,19.59-19.6,19.59ZM707.84,262.77c-8.23,0-14.92,6.69-14.93,14.92,0,3.98,1.55,7.73,4.37,10.55,2.82,2.82,6.57,4.38,10.55,4.38h0c8.23,0,14.92-6.69,14.93-14.92,0-3.98-1.55-7.73-4.37-10.55-2.82-2.82-6.57-4.38-10.55-4.38h0Z"/>
    </g>
    <path class="st1" d="M653.52,303.94c58.27,28.14,96.76,3.84,132.21-23.94,1.6-1.25,3.73.66,2.65,2.38-34.7,55.41-74.08,105.8-142.66,138.99-1.87.91-3.54-1.57-2-2.97,39.07-35.51,51.11-71.99,7.78-111.5-1.55-1.41.12-3.88,2.01-2.97Z"/>
    <g>
      <path class="st0" d="M763.69,283.15c-17.43,49.89-39.97,95.4-80.15,138.27-.86.92-2.35-.04-1.86-1.2,5.01-11.81,12.75-36.77,3.91-65.89-7.51-24.74-23.24-40.13-33.27-47.94-.9-.7-.11-2.1.95-1.71,15,5.59,45.66,13.47,77.32-.4,14.22-6.23,24.44-15.02,31.22-22.27.83-.89,2.28,0,1.88,1.14Z"/>
      <path class="st1" d="M682.73,424.13c-.65,0-1.31-.19-1.9-.57-1.43-.93-1.96-2.67-1.3-4.24,5.08-11.99,12.34-36.27,3.83-64.3-7.07-23.28-21.56-38.28-32.47-46.77-1.31-1.02-1.67-2.8-.86-4.25.81-1.44,2.52-2.07,4.06-1.49,15.09,5.62,44.98,13.05,75.56-.35,11.4-5,21.65-12.31,30.46-21.73,1.13-1.21,2.9-1.45,4.31-.6,1.41.86,2.02,2.54,1.47,4.1-20.42,58.47-45.3,101.37-80.65,139.1-.68.73-1.59,1.11-2.51,1.11ZM659.31,309.19c10.42,9.35,22.25,23.8,28.52,44.46,7.69,25.33,3.13,47.72-1.69,61.49,31.6-34.98,54.52-74.78,73.52-127.63-8.34,8.02-17.79,14.37-28.14,18.91-27.94,12.24-55.23,7.95-72.22,2.77Z"/>
    </g>
    <g>
      <path class="st1" d="M635.24,484.38c.37-1.7.75-3.41,1.12-5.11h.98c.88,1.71,1.78,3.41,2.66,5.11,1.79,3.45,3.59,6.89,5.39,10.33l4.76,9.13c.31.53.68.96,1.11,1.3.41.34,1.08.51,1.97.51h2.84c.52,0,1.01-.17,1.46-.51.44-.34.67-.75.67-1.22,0-.26-.08-.55-.24-.87l-12.6-24.35,22.71-25.6c.31-.32.47-.69.47-1.11s-.13-.77-.4-1.06c-.26-.29-.6-.43-1.02-.43h-4.49c-.79,0-1.43.14-1.93.43-.5.29-1.04.75-1.62,1.38l-9.08,10.4c-3.25,3.73-6.5,7.46-9.76,11.18h-2.69c.23-1.05.46-2.1.69-3.15l3.79-18.12c.11-.57-.02-1.08-.36-1.49-.34-.42-.8-.63-1.37-.63h-3.23c-.58,0-1.11.21-1.62.63-.5.42-.8.92-.91,1.49l-3.87,18.12c-.22,1.05-.45,2.1-.68,3.15h-2.52c-.54-1.05-1.09-2.1-1.63-3.15-1.26-2.44-2.52-4.88-3.78-7.32l-5.66-10.96c-.74-1.32-1.78-1.98-3.15-1.98h-2.84c-.53,0-.98.21-1.38.63-.4.43-.59.87-.59,1.34,0,.11.05.31.16.63l11.88,23.16-23.64,26.78c-.32.32-.47.69-.47,1.11s.13.78.39,1.06c.27.29.6.43,1.02.43h4.49c.79,0,1.43-.14,1.93-.43.5-.29,1.04-.75,1.62-1.38l9.11-10.37c2.66-3.03,5.33-6.06,7.99-9.08,1.5-1.7,3-3.41,4.5-5.11h1.42c-.37,1.7-.73,3.41-1.1,5.11l-4.1,19.14c-.11.58,0,1.08.35,1.49.34.42.8.63,1.38.63h3.23c.58,0,1.12-.21,1.62-.63.5-.42.8-.92.91-1.49l4.11-19.14Z"/>
      <path class="st1" d="M664.61,505.67h2.76c1.1,0,2.34-.79,3.7-2.36l33.58-37.33-8.05,37.58c-.11.58,0,1.08.31,1.5.31.42.76.63,1.34.63h3.23c.58,0,1.13-.21,1.66-.63.52-.42.84-.92.95-1.5l10.82-50.89c.11-.58-.01-1.08-.35-1.5-.34-.42-.8-.63-1.38-.63h-2.76c-.68,0-1.3.21-1.85.63-.55.42-1.14,1-1.77,1.73l-33.58,37.57,8.13-37.81c.1-.58-.01-1.08-.35-1.5-.34-.42-.8-.63-1.38-.63h-3.23c-.58,0-1.12.21-1.62.63-.5.42-.8.92-.91,1.5l-10.9,50.89c-.11.58,0,1.08.31,1.5.31.42.76.63,1.34.63Z"/>
      <path class="st1" d="M760.46,473.37c1.66-2.02,2.8-4.53,3.43-7.52.21-.84.32-1.86.32-3.07,0-3.31-1.09-6.17-3.27-8.59-2.18-2.42-5.79-3.63-10.83-3.63h-21.35c-.58-.01-1.12.2-1.62.62-.5.42-.8.92-.91,1.5l-10.9,50.89c-.11.58.01,1.08.35,1.5.34.42.8.63,1.38.63h23.72c5.36.01,9.65-1.45,12.88-4.4,3.23-2.94,5.32-6.59,6.27-10.95.26-1.42.39-2.57.39-3.47,0-3.89-1.42-7.04-4.25-9.46,1.26-.68,2.72-2.03,4.37-4.06ZM752.53,489.71c-.58,2.57-1.85,4.7-3.82,6.38-1.97,1.68-4.61,2.52-7.92,2.52h-16.86s3.79-17.97,3.79-17.97h16.86c2.89,0,4.98.61,6.26,1.82,1.29,1.21,1.93,2.84,1.93,4.89,0,.79-.08,1.58-.24,2.36ZM756.48,465.61c-.58,2.63-1.87,4.61-3.86,5.95-2,1.34-4.89,2.01-8.67,2.01h-14.73s3.4-15.92,3.4-15.92h16.7c4.99.01,7.48,1.85,7.48,5.53,0,.47-.11,1.29-.32,2.44Z"/>
      <path class="st1" d="M817.4,451.21c-.34-.42-.8-.63-1.38-.63h-2.76c-.68,0-1.3.21-1.85.63-.55.42-1.14,1-1.77,1.73l-33.58,37.57,8.13-37.81c.1-.58-.01-1.08-.35-1.5-.34-.42-.8-.63-1.38-.63h-3.23c-.58,0-1.12.21-1.62.63-.5.42-.8.92-.91,1.5l-10.9,50.89c-.11.58,0,1.08.31,1.5.31.42.76.63,1.34.63h2.76c1.1,0,2.34-.79,3.7-2.36l33.58-37.33-8.05,37.58c-.11.58,0,1.08.31,1.5.31.42.76.63,1.34.63h3.23c.58,0,1.13-.21,1.66-.63.52-.42.84-.92.95-1.5l10.82-50.89c.11-.58-.01-1.08-.35-1.5Z"/>
      <path class="st1" d="M621.95,517.5c-.22-1.06-.84-1.59-1.83-1.59h-3.09c-1.03,0-1.87.53-2.51,1.59l-18.51,30.8c-.1.19-.14.37-.14.53,0,.23.08.43.24.6.16.18.37.27.63.27h2.17c.55,0,.98-.11,1.3-.34.32-.22.6-.51.82-.87l3.87-6.42h16.76s1.16,6.43,1.16,6.43c.16.81.71,1.21,1.64,1.21h1.59c.42,0,.73-.11.94-.34.21-.22.31-.53.31-.92,0-.19-.02-.35-.05-.48l-5.3-30.47ZM607.5,537.73l10.39-17.23,2.99,17.24h-13.38Z"/>
      <path class="st1" d="M660.67,515.93h-3.67c-.68,0-1.3.24-1.88.72l-15.31,11.39,2.32-10.82c.06-.35,0-.66-.22-.92-.21-.26-.49-.39-.85-.39h-1.98c-.36,0-.68.13-.99.38-.31.26-.49.56-.56.92l-6.68,31.19c-.07.36,0,.66.22.92.21.26.49.39.84.39h1.98c.35,0,.68-.13.99-.38.31-.26.49-.56.56-.92l2.76-12.89,11.2,13.48c.39.48.92.73,1.59.73h2.61c.35,0,.65-.12.89-.36.24-.24.36-.51.36-.8s-.1-.55-.29-.77l-13.13-15.7,19.42-14.24c.48-.35.73-.76.73-1.21,0-.23-.08-.4-.24-.53-.16-.13-.39-.19-.68-.19Z"/>
      <path class="st1" d="M688.11,519.9c.32-.26.51-.56.58-.92l.39-1.74c.06-.35,0-.66-.22-.92-.21-.26-.49-.39-.85-.39h-22.65c-.35-.01-.68.12-.99.38-.31.26-.49.56-.56.92l-.39,1.74c-.06.35,0,.66.19.92.19.26.47.39.82.39h9.03s-6,28.15-6,28.15c-.07.35,0,.66.22.92.21.26.49.39.84.39h1.98c.35,0,.68-.13.99-.38.31-.26.49-.56.56-.92l6-28.15h9.03c.35,0,.69-.12,1.01-.38Z"/>
      <path class="st1" d="M716.96,515.95h-1.69c-.42,0-.8.13-1.14.38-.34.26-.7.61-1.09,1.06l-20.58,23.02,4.98-23.18c.06-.35,0-.66-.22-.92-.21-.26-.49-.39-.85-.39h-1.98c-.36,0-.68.13-.99.38-.31.26-.49.56-.56.92l-6.68,31.19c-.07.36,0,.66.19.92.19.26.47.39.82.39h1.69c.68,0,1.43-.48,2.27-1.45l20.58-22.88-4.94,23.03c-.07.35,0,.66.19.92.19.26.47.39.82.39h1.98c.35,0,.69-.13,1.02-.38.32-.26.51-.56.58-.92l6.63-31.19c.06-.35,0-.66-.22-.92-.21-.26-.49-.39-.85-.39Z"/>
      <path class="st1" d="M739.77,515.96h-13.09c-.36,0-.68.12-.99.38-.31.26-.49.56-.56.92l-6.68,31.19c-.07.36,0,.66.22.92.21.26.49.39.84.39h14.53c3.28,0,5.92-.89,7.9-2.69,1.98-1.8,3.26-4.04,3.84-6.71.16-.87.24-1.58.24-2.12,0-2.38-.87-4.31-2.6-5.8.77-.42,1.67-1.25,2.68-2.49,1.02-1.24,1.72-2.78,2.1-4.61.13-.51.19-1.14.19-1.88,0-2.03-.67-3.78-2-5.26-1.34-1.48-3.55-2.22-6.64-2.22ZM741.26,539.96c-.36,1.58-1.14,2.88-2.34,3.91-1.21,1.03-2.83,1.54-4.85,1.54h-10.33s2.32-11.01,2.32-11.01h10.33c1.77,0,3.05.38,3.84,1.12.79.74,1.18,1.74,1.18,2.99,0,.48-.05.97-.15,1.45ZM743.68,525.19c-.36,1.61-1.14,2.82-2.37,3.64-1.22.82-2.99,1.23-5.31,1.23h-9.03s2.08-9.76,2.08-9.76h10.24c3.06,0,4.59,1.13,4.59,3.39,0,.29-.07.79-.19,1.5Z"/>
      <path class="st1" d="M781.36,515.98h-1.98c-.36,0-.69.13-.99.38-.31.26-.49.56-.55.92l-2.86,13.23h-17s2.85-13.24,2.85-13.24c.06-.35,0-.66-.22-.92-.21-.26-.49-.39-.85-.39h-1.98c-.36,0-.68.13-.99.38-.31.26-.49.56-.56.92l-6.68,31.19c-.07.39,0,.7.22.94.21.24.49.36.84.36h1.98c.35,0,.68-.13.99-.38.31-.26.49-.56.56-.92l2.9-13.62h17s-2.9,13.62-2.9,13.62c-.06.36,0,.66.22.92.21.26.49.39.84.39h1.98c.35,0,.68-.13.99-.38.31-.26.49-.56.56-.92l6.68-31.19c.06-.35,0-.66-.22-.92-.21-.26-.49-.39-.84-.39Z"/>
      <path class="st1" d="M807.26,516.86c-1.71-.9-3.7-1.35-5.99-1.35-2.74,0-5.18.57-7.34,1.71-2.16,1.14-3.94,2.7-5.34,4.68-1.4,1.98-2.39,4.21-2.97,6.69-.65,2.58-1.26,5.44-1.84,8.59-.13.74-.19,1.53-.19,2.37,0,2.03.47,3.86,1.4,5.48.93,1.63,2.25,2.91,3.96,3.84,1.71.93,3.65,1.4,5.84,1.4,4.44,0,7.91-1.18,10.41-3.54,2.5-2.37,4.24-5.54,5.24-9.53.64-2.57,1.26-5.44,1.84-8.59.16-.77.24-1.64.24-2.61,0-2-.45-3.79-1.35-5.38-.9-1.59-2.2-2.84-3.91-3.74ZM807.64,528.84c-.52,2.9-1.1,5.6-1.74,8.11-.74,2.96-2.08,5.2-4.01,6.71-1.93,1.51-4.3,2.27-7.1,2.27-1.87,0-3.43-.59-4.68-1.76-1.26-1.18-1.88-2.86-1.88-5.05,0-.77.07-1.5.19-2.17.55-2.9,1.13-5.6,1.74-8.11.74-2.96,2.08-5.2,4.01-6.71,1.93-1.51,4.3-2.27,7.1-2.27,1.87,0,3.43.59,4.68,1.76,1.25,1.18,1.88,2.86,1.88,5.05,0,.77-.07,1.5-.19,2.17Z"/>
    </g>
  </g>
  <path class="st1" d="M1144.02,277.71c-.01,9.52-7.75,17.26-17.27,17.25-9.52,0-17.26-7.74-17.26-17.27s7.75-17.26,17.27-17.25c9.52,0,17.26,7.75,17.26,17.27Z"/>
  <path class="st1" d="M1098.76,356.07c5.19,17.08,4.28,32.71,1.68,44.8-11.01,7.39-22.89,14.25-35.81,20.5-1.87.91-3.54-1.57-2-2.97,23.61-21.46,37.35-43.28,34.96-65.91.41,1.17.8,2.36,1.17,3.58Z"/>
  <path class="st1" d="M1207.3,282.38c-13.28,21.21-27.24,41.67-43.27,60.72,7.52-14.99,14.42-31.08,20.86-48.58,6.75-4.53,13.3-9.47,19.75-14.52,1.6-1.25,3.73.66,2.66,2.38Z"/>
  <path class="st1" d="M1182.6,283.15c-17.43,49.89-39.99,95.4-80.15,138.27-.86.92-2.35-.04-1.86-1.19,5.01-11.81,12.75-36.78,3.91-65.9-7.51-24.73-23.24-40.13-33.27-47.94-.9-.69-.12-2.1.95-1.7,15,5.58,45.66,13.47,77.32-.4,14.22-6.24,24.43-15.02,31.22-22.28.83-.88,2.28,0,1.88,1.14Z"/>
  <g>
    <path class="st1" d="M1054.14,484.38c.37-1.7.75-3.41,1.12-5.11h.98c.88,1.71,1.78,3.41,2.66,5.11,1.79,3.45,3.59,6.89,5.39,10.33l4.76,9.13c.31.53.68.96,1.11,1.3.41.34,1.08.51,1.97.51h2.84c.52,0,1.01-.17,1.46-.51.44-.34.67-.75.67-1.22,0-.26-.08-.55-.24-.87l-12.6-24.35,22.71-25.6c.31-.32.47-.69.47-1.11s-.13-.77-.4-1.06c-.26-.29-.6-.43-1.02-.43h-4.49c-.79,0-1.43.14-1.93.43-.5.29-1.04.75-1.62,1.38l-9.08,10.4c-3.25,3.73-6.5,7.46-9.76,11.18h-2.69c.23-1.05.46-2.1.69-3.15l3.79-18.12c.11-.57-.02-1.08-.36-1.49-.34-.42-.8-.63-1.37-.63h-3.23c-.58,0-1.11.21-1.62.63-.5.42-.8.92-.91,1.49l-3.87,18.12c-.22,1.05-.45,2.1-.68,3.15h-2.52c-.54-1.05-1.09-2.1-1.63-3.15-1.26-2.44-2.52-4.88-3.78-7.32l-5.66-10.96c-.74-1.32-1.78-1.98-3.15-1.98h-2.84c-.53,0-.98.21-1.38.63-.4.43-.59.87-.59,1.34,0,.11.05.31.16.63l11.88,23.16-23.64,26.78c-.32.32-.47.69-.47,1.11s.13.78.39,1.06c.27.29.6.43,1.02.43h4.49c.79,0,1.43-.14,1.93-.43.5-.29,1.04-.75,1.62-1.38l9.11-10.37c2.66-3.03,5.33-6.06,7.99-9.08,1.5-1.7,3-3.41,4.5-5.11h1.42c-.37,1.7-.73,3.41-1.1,5.11l-4.1,19.14c-.11.58,0,1.08.35,1.49.34.42.8.63,1.38.63h3.23c.58,0,1.12-.21,1.62-.63.5-.42.8-.92.91-1.49l4.11-19.14Z"/>
    <path class="st1" d="M1083.51,505.67h2.76c1.1,0,2.34-.79,3.7-2.36l33.58-37.33-8.05,37.58c-.11.58,0,1.08.31,1.5.31.42.76.63,1.34.63h3.23c.58,0,1.13-.21,1.66-.63.52-.42.84-.92.95-1.5l10.82-50.89c.11-.58-.01-1.08-.35-1.5-.34-.42-.8-.63-1.38-.63h-2.76c-.68,0-1.3.21-1.85.63-.55.42-1.14,1-1.77,1.73l-33.58,37.57,8.13-37.81c.1-.58-.01-1.08-.35-1.5-.34-.42-.8-.63-1.38-.63h-3.23c-.58,0-1.12.21-1.62.63-.5.42-.8.92-.91,1.5l-10.9,50.89c-.11.58,0,1.08.31,1.5.31.42.76.63,1.34.63Z"/>
    <path class="st1" d="M1179.37,473.37c1.66-2.02,2.8-4.53,3.43-7.52.21-.84.32-1.86.32-3.07,0-3.31-1.09-6.17-3.27-8.59-2.18-2.42-5.79-3.63-10.83-3.63h-21.35c-.58-.01-1.12.2-1.62.62-.5.42-.8.92-.91,1.5l-10.9,50.89c-.11.58.01,1.08.35,1.5.34.42.8.63,1.38.63h23.72c5.36.01,9.65-1.45,12.88-4.4,3.23-2.94,5.32-6.59,6.27-10.95.26-1.42.39-2.57.39-3.47,0-3.89-1.42-7.04-4.25-9.46,1.26-.68,2.72-2.03,4.37-4.06ZM1171.44,489.71c-.58,2.57-1.85,4.7-3.82,6.38-1.97,1.68-4.61,2.52-7.92,2.52h-16.86s3.79-17.97,3.79-17.97h16.86c2.89,0,4.98.61,6.26,1.82,1.29,1.21,1.93,2.84,1.93,4.89,0,.79-.08,1.58-.24,2.36ZM1175.39,465.61c-.58,2.63-1.87,4.61-3.86,5.95-2,1.34-4.89,2.01-8.67,2.01h-14.73s3.4-15.92,3.4-15.92h16.7c4.99.01,7.48,1.85,7.48,5.53,0,.47-.11,1.29-.32,2.44Z"/>
    <path class="st1" d="M1236.31,451.21c-.34-.42-.8-.63-1.38-.63h-2.76c-.68,0-1.3.21-1.85.63-.55.42-1.14,1-1.77,1.73l-33.58,37.57,8.13-37.81c.1-.58-.01-1.08-.35-1.5-.34-.42-.8-.63-1.38-.63h-3.23c-.58,0-1.12.21-1.62.63-.5.42-.8.92-.91,1.5l-10.9,50.89c-.11.58,0,1.08.31,1.5.31.42.76.63,1.34.63h2.76c1.1,0,2.34-.79,3.7-2.36l33.58-37.33-8.05,37.58c-.11.58,0,1.08.31,1.5.31.42.76.63,1.34.63h3.23c.58,0,1.13-.21,1.66-.63.52-.42.84-.92.95-1.5l10.82-50.89c.11-.58-.01-1.08-.35-1.5Z"/>
    <path class="st1" d="M1040.85,517.5c-.22-1.06-.84-1.59-1.83-1.59h-3.09c-1.03,0-1.87.53-2.51,1.59l-18.51,30.8c-.1.19-.14.37-.14.53,0,.23.08.43.24.6.16.18.37.27.63.27h2.17c.55,0,.98-.11,1.3-.34.32-.22.6-.51.82-.87l3.87-6.42h16.76s1.16,6.43,1.16,6.43c.16.81.71,1.21,1.64,1.21h1.59c.42,0,.73-.11.94-.34.21-.22.31-.53.31-.92,0-.19-.02-.35-.05-.48l-5.3-30.47ZM1026.4,537.73l10.39-17.23,2.99,17.24h-13.38Z"/>
    <path class="st1" d="M1079.58,515.93h-3.67c-.68,0-1.3.24-1.88.72l-15.31,11.39,2.32-10.82c.06-.35,0-.66-.22-.92-.21-.26-.49-.39-.85-.39h-1.98c-.36,0-.68.13-.99.38-.31.26-.49.56-.56.92l-6.68,31.19c-.07.36,0,.66.22.92.21.26.49.39.84.39h1.98c.35,0,.68-.13.99-.38.31-.26.49-.56.56-.92l2.76-12.89,11.2,13.48c.39.48.92.73,1.59.73h2.61c.35,0,.65-.12.89-.36.24-.24.36-.51.36-.8s-.1-.55-.29-.77l-13.13-15.7,19.42-14.24c.48-.35.73-.76.73-1.21,0-.23-.08-.4-.24-.53-.16-.13-.39-.19-.68-.19Z"/>
    <path class="st1" d="M1107.02,519.9c.32-.26.51-.56.58-.92l.39-1.74c.06-.35,0-.66-.22-.92-.21-.26-.49-.39-.85-.39h-22.65c-.35-.01-.68.12-.99.38-.31.26-.49.56-.56.92l-.39,1.74c-.06.35,0,.66.19.92.19.26.47.39.82.39h9.03s-6,28.15-6,28.15c-.07.35,0,.66.22.92.21.26.49.39.84.39h1.98c.35,0,.68-.13.99-.38.31-.26.49-.56.56-.92l6-28.15h9.03c.35,0,.69-.12,1.01-.38Z"/>
    <path class="st1" d="M1135.87,515.95h-1.69c-.42,0-.8.13-1.14.38-.34.26-.7.61-1.09,1.06l-20.58,23.02,4.98-23.18c.06-.35,0-.66-.22-.92-.21-.26-.49-.39-.85-.39h-1.98c-.36,0-.68.13-.99.38-.31.26-.49.56-.56.92l-6.68,31.19c-.07.36,0,.66.19.92.19.26.47.39.82.39h1.69c.68,0,1.43-.48,2.27-1.45l20.58-22.88-4.94,23.03c-.07.35,0,.66.19.92.19.26.47.39.82.39h1.98c.35,0,.69-.13,1.02-.38.32-.26.51-.56.58-.92l6.63-31.19c.06-.35,0-.66-.22-.92-.21-.26-.49-.39-.85-.39Z"/>
    <path class="st1" d="M1158.68,515.96h-13.09c-.36,0-.68.12-.99.38-.31.26-.49.56-.56.92l-6.68,31.19c-.07.36,0,.66.22.92.21.26.49.39.84.39h14.53c3.28,0,5.92-.89,7.9-2.69,1.98-1.8,3.26-4.04,3.84-6.71.16-.87.24-1.58.24-2.12,0-2.38-.87-4.31-2.6-5.8.77-.42,1.67-1.25,2.68-2.49,1.02-1.24,1.72-2.78,2.1-4.61.13-.51.19-1.14.19-1.88,0-2.03-.67-3.78-2-5.26-1.34-1.48-3.55-2.22-6.64-2.22ZM1160.17,539.96c-.36,1.58-1.14,2.88-2.34,3.91-1.21,1.03-2.83,1.54-4.85,1.54h-10.33s2.32-11.01,2.32-11.01h10.33c1.77,0,3.05.38,3.84,1.12.79.74,1.18,1.74,1.18,2.99,0,.48-.05.97-.15,1.45ZM1162.59,525.19c-.36,1.61-1.14,2.82-2.37,3.64-1.22.82-2.99,1.23-5.31,1.23h-9.03s2.08-9.76,2.08-9.76h10.24c3.06,0,4.59,1.13,4.59,3.39,0,.29-.07.79-.19,1.5Z"/>
    <path class="st1" d="M1200.26,515.98h-1.98c-.36,0-.69.13-.99.38-.31.26-.49.56-.55.92l-2.86,13.23h-17s2.85-13.24,2.85-13.24c.06-.35,0-.66-.22-.92-.21-.26-.49-.39-.85-.39h-1.98c-.36,0-.68.13-.99.38-.31.26-.49.56-.56.92l-6.68,31.19c-.07.39,0,.7.22.94.21.24.49.36.84.36h1.98c.35,0,.68-.13.99-.38.31-.26.49-.56.56-.92l2.9-13.62h17s-2.9,13.62-2.9,13.62c-.06.36,0,.66.22.92.21.26.49.39.84.39h1.98c.35,0,.68-.13.99-.38.31-.26.49-.56.56-.92l6.68-31.19c.06-.35,0-.66-.22-.92-.21-.26-.49-.39-.84-.39Z"/>
    <path class="st1" d="M1226.17,516.86c-1.71-.9-3.7-1.35-5.99-1.35-2.74,0-5.18.57-7.34,1.71-2.16,1.14-3.94,2.7-5.34,4.68-1.4,1.98-2.39,4.21-2.97,6.69-.65,2.58-1.26,5.44-1.84,8.59-.13.74-.19,1.53-.19,2.37,0,2.03.47,3.86,1.4,5.48.93,1.63,2.25,2.91,3.96,3.84,1.71.93,3.65,1.4,5.84,1.4,4.44,0,7.91-1.18,10.41-3.54,2.5-2.37,4.24-5.54,5.24-9.53.64-2.57,1.26-5.44,1.84-8.59.16-.77.24-1.64.24-2.61,0-2-.45-3.79-1.35-5.38-.9-1.59-2.2-2.84-3.91-3.74ZM1226.55,528.84c-.52,2.9-1.1,5.6-1.74,8.11-.74,2.96-2.08,5.2-4.01,6.71-1.93,1.51-4.3,2.27-7.1,2.27-1.87,0-3.43-.59-4.68-1.76-1.26-1.18-1.88-2.86-1.88-5.05,0-.77.07-1.5.19-2.17.55-2.9,1.13-5.6,1.74-8.11.74-2.96,2.08-5.2,4.01-6.71,1.93-1.51,4.3-2.27,7.1-2.27,1.87,0,3.43.59,4.68,1.76,1.25,1.18,1.88,2.86,1.88,5.05,0,.77-.07,1.5-.19,2.17Z"/>
  </g>
  <g>
    <g>
      <path class="st0" d="M600.23,697.29c0,9.52-7.75,17.26-17.27,17.26-9.52,0-17.26-7.75-17.26-17.27,0-9.52,7.75-17.26,17.27-17.26,9.52,0,17.26,7.75,17.26,17.27Z"/>
      <path class="st1" d="M582.97,716.88h0c-5.23,0-10.15-2.04-13.85-5.75-3.7-3.71-5.74-8.63-5.74-13.86,0-10.8,8.8-19.59,19.6-19.59h0c5.23,0,10.15,2.05,13.85,5.75,3.7,3.71,5.74,8.63,5.74,13.85h-2.34s2.34,0,2.34,0c0,10.8-8.8,19.59-19.6,19.59ZM582.97,682.36c-8.23,0-14.92,6.69-14.93,14.92,0,3.98,1.55,7.73,4.37,10.55,2.82,2.82,6.57,4.38,10.55,4.38h0c8.23,0,14.92-6.69,14.93-14.92,0-3.98-1.55-7.73-4.37-10.55-2.82-2.82-6.57-4.38-10.55-4.38h0Z"/>
    </g>
    <path class="st1" d="M528.64,723.52c58.27,28.14,96.76,3.84,132.21-23.94,1.6-1.25,3.73.66,2.65,2.38-34.7,55.41-74.08,105.8-142.66,138.99-1.87.91-3.54-1.57-2-2.97,39.07-35.51,51.11-71.99,7.78-111.5-1.55-1.41.12-3.88,2.01-2.97Z"/>
    <g>
      <path class="st0" d="M638.81,702.74c-17.43,49.89-39.97,95.4-80.15,138.27-.86.92-2.35-.04-1.86-1.2,5.01-11.81,12.75-36.77,3.91-65.89-7.51-24.74-23.24-40.13-33.27-47.94-.9-.7-.11-2.1.95-1.71,15,5.59,45.66,13.47,77.32-.4,14.22-6.23,24.44-15.02,31.22-22.27.83-.89,2.28,0,1.88,1.14Z"/>
      <path class="st1" d="M557.85,843.71c-.65,0-1.31-.19-1.9-.57-1.43-.93-1.96-2.67-1.3-4.24,5.08-11.99,12.34-36.27,3.83-64.3-7.07-23.28-21.56-38.28-32.47-46.77-1.31-1.02-1.67-2.8-.86-4.25.81-1.44,2.52-2.07,4.06-1.49,15.09,5.62,44.98,13.05,75.56-.35,11.4-5,21.65-12.31,30.46-21.73,1.13-1.21,2.9-1.45,4.31-.6,1.41.86,2.02,2.54,1.47,4.1-20.42,58.47-45.3,101.37-80.65,139.1-.68.73-1.59,1.11-2.51,1.11ZM534.43,728.78c10.42,9.35,22.25,23.8,28.52,44.46,7.69,25.33,3.13,47.72-1.69,61.49,31.6-34.98,54.52-74.78,73.52-127.63-8.34,8.02-17.79,14.37-28.14,18.91-27.94,12.24-55.23,7.95-72.22,2.77Z"/>
    </g>
  </g>
  <g>
    <path class="st1" d="M711.83,756.69c.47-2.15.95-4.31,1.42-6.46h1.23c1.12,2.16,2.25,4.31,3.36,6.46,2.27,4.36,4.54,8.72,6.82,13.06l6.02,11.54c.4.67.86,1.21,1.4,1.65.52.43,1.36.65,2.49.65h3.59c.66,0,1.27-.21,1.84-.65.56-.43.85-.94.85-1.54,0-.33-.11-.69-.3-1.1l-15.93-30.78,28.7-32.36c.4-.4.6-.87.6-1.4s-.16-.97-.5-1.34c-.33-.37-.76-.55-1.29-.55h-5.68c-.99,0-1.8.17-2.44.54-.63.37-1.31.94-2.04,1.75l-11.47,13.14c-4.11,4.71-8.21,9.43-12.34,14.13h-3.4c.29-1.33.58-2.65.88-3.98l4.79-22.91c.13-.72-.02-1.36-.45-1.89-.42-.53-1.01-.8-1.74-.8h-4.09c-.73,0-1.41.27-2.04.8-.63.53-1.01,1.16-1.15,1.89l-4.89,22.91c-.28,1.33-.57,2.66-.85,3.98h-3.18c-.68-1.33-1.38-2.65-2.06-3.98-1.59-3.09-3.19-6.17-4.78-9.26l-7.15-13.85c-.94-1.67-2.26-2.5-3.98-2.5h-3.59c-.67,0-1.24.26-1.75.79-.5.54-.75,1.1-.75,1.7,0,.14.07.4.2.8l15.02,29.28-29.89,33.85c-.4.4-.6.87-.6,1.4s.16.98.49,1.34c.34.37.76.55,1.29.55h5.68c1,0,1.81-.17,2.44-.54.64-.37,1.31-.94,2.04-1.75l11.52-13.1c3.36-3.83,6.74-7.66,10.1-11.48,1.9-2.15,3.79-4.31,5.69-6.46h1.8c-.46,2.15-.92,4.31-1.38,6.46l-5.19,24.2c-.14.73,0,1.36.44,1.89.43.53,1.01.8,1.75.8h4.08c.73,0,1.42-.26,2.04-.8.64-.53,1.01-1.16,1.15-1.89l5.2-24.2Z"/>
    <path class="st1" d="M748.96,783.6h3.49c1.39,0,2.95-.99,4.68-2.98l42.45-47.19-10.18,47.5c-.13.73,0,1.36.4,1.89.4.53.96.8,1.69.8h4.08c.73,0,1.43-.26,2.09-.79.66-.53,1.06-1.16,1.2-1.89l13.67-64.33c.13-.73-.02-1.36-.45-1.89-.43-.53-1.01-.8-1.74-.8h-3.49c-.86,0-1.64.26-2.34.79-.7.53-1.45,1.26-2.24,2.19l-42.45,47.49,10.28-47.8c.13-.73-.02-1.36-.45-1.89-.43-.53-1.01-.8-1.74-.8h-4.08c-.73,0-1.41.26-2.04.79-.63.53-1.01,1.16-1.15,1.89l-13.77,64.34c-.13.73,0,1.36.4,1.89.4.53.96.8,1.69.8Z"/>
    <path class="st1" d="M870.13,742.77c2.09-2.55,3.54-5.73,4.34-9.51.27-1.06.4-2.36.4-3.88,0-4.18-1.38-7.8-4.13-10.86-2.75-3.05-7.32-4.58-13.69-4.59h-26.99c-.73-.01-1.41.25-2.04.78-.63.53-1.01,1.16-1.15,1.89l-13.77,64.33c-.13.73.01,1.36.45,1.89.43.53,1.01.8,1.74.8h29.98c6.77.02,12.2-1.84,16.29-5.56,4.09-3.72,6.73-8.33,7.93-13.84.33-1.79.5-3.25.5-4.38,0-4.91-1.79-8.9-5.37-11.95,1.59-.86,3.44-2.57,5.53-5.13ZM860.11,763.43c-.73,3.25-2.34,5.94-4.83,8.07-2.49,2.12-5.83,3.18-10.01,3.18h-21.31s4.79-22.72,4.79-22.72h21.31c3.65.01,6.29.78,7.92,2.3,1.63,1.53,2.44,3.59,2.44,6.18,0,1-.1,1.99-.3,2.99ZM865.11,732.96c-.73,3.32-2.36,5.83-4.88,7.52-2.52,1.69-6.18,2.54-10.96,2.54h-18.63s4.29-20.13,4.29-20.13h21.12c6.31.01,9.46,2.34,9.46,6.99,0,.6-.13,1.63-.4,3.09Z"/>
    <path class="st1" d="M942.11,714.77c-.43-.53-1.01-.8-1.74-.8h-3.49c-.86,0-1.64.26-2.34.79-.7.53-1.45,1.26-2.24,2.19l-42.45,47.49,10.28-47.8c.13-.73-.02-1.36-.45-1.89-.43-.53-1.01-.8-1.74-.8h-4.08c-.73,0-1.41.26-2.04.79-.63.53-1.01,1.16-1.15,1.89l-13.77,64.34c-.13.73,0,1.36.4,1.89.4.53.96.8,1.69.8h3.49c1.39,0,2.95-.99,4.68-2.98l42.45-47.19-10.18,47.5c-.13.73,0,1.36.4,1.89.4.53.96.8,1.69.8h4.08c.73,0,1.43-.26,2.09-.79.66-.53,1.06-1.16,1.2-1.89l13.67-64.34c.13-.73-.02-1.36-.45-1.89Z"/>
    <path class="st1" d="M695.03,798.57c-.28-1.34-1.06-2.01-2.32-2.02h-3.91c-1.3,0-2.36.67-3.18,2.01l-23.4,38.94c-.12.24-.18.47-.18.67,0,.29.1.54.3.76.2.22.47.34.79.34h2.75c.69,0,1.24-.14,1.65-.43.41-.28.75-.65,1.04-1.1l4.89-8.12h21.18s1.46,8.13,1.46,8.13c.2,1.02.89,1.53,2.07,1.53h2.02c.53,0,.93-.14,1.19-.43.26-.28.4-.67.4-1.16,0-.24-.02-.45-.06-.61l-6.7-38.52ZM676.77,824.13l13.14-21.79,3.77,21.79h-16.91Z"/>
    <path class="st1" d="M743.98,796.57h-4.64c-.85,0-1.65.3-2.38.91l-19.36,14.4,2.94-13.67c.08-.45,0-.83-.27-1.16-.27-.33-.62-.49-1.07-.49h-2.5c-.45,0-.86.16-1.25.49-.39.33-.62.71-.7,1.16l-8.44,39.43c-.08.45,0,.84.27,1.16.26.33.62.49,1.07.49h2.5c.45,0,.86-.16,1.25-.49.39-.32.62-.71.7-1.16l3.49-16.3,14.15,17.04c.49.61,1.16.92,2.01.92h3.3c.45,0,.83-.15,1.13-.46.3-.3.46-.64.46-1.01s-.12-.69-.37-.98l-16.6-19.85,24.55-18c.61-.45.92-.96.92-1.53,0-.28-.1-.51-.3-.67-.2-.16-.49-.24-.85-.24Z"/>
    <path class="st1" d="M778.67,801.6c.41-.33.65-.71.73-1.16l.49-2.2c.08-.45,0-.83-.27-1.16-.27-.33-.62-.49-1.07-.49h-28.63c-.45-.01-.87.15-1.25.47-.39.33-.62.71-.7,1.16l-.49,2.2c-.08.45,0,.83.24,1.16.24.33.59.49,1.04.49h11.41s-7.59,35.59-7.59,35.59c-.08.45,0,.83.27,1.16.26.33.62.49,1.07.49h2.5c.45,0,.86-.16,1.25-.49.39-.32.62-.71.7-1.16l7.59-35.58h11.41c.45,0,.87-.16,1.28-.48Z"/>
    <path class="st1" d="M815.14,796.61h-2.14c-.53,0-1.01.16-1.44.49-.43.33-.88.77-1.37,1.34l-26.02,29.11,6.3-29.3c.08-.45,0-.83-.27-1.16-.27-.33-.62-.49-1.07-.49h-2.5c-.45,0-.86.16-1.25.49-.39.33-.62.71-.7,1.16l-8.44,39.43c-.08.45,0,.84.24,1.16.24.33.59.49,1.04.49h2.14c.85,0,1.81-.61,2.87-1.83l26.02-28.92-6.24,29.12c-.08.45,0,.83.24,1.16.24.33.59.49,1.04.49h2.5c.45,0,.87-.16,1.28-.49.41-.32.65-.71.73-1.16l8.38-39.43c.08-.45,0-.83-.27-1.16-.27-.33-.62-.49-1.07-.49Z"/>
    <path class="st1" d="M843.98,796.62h-16.54c-.45,0-.86.16-1.25.48-.39.33-.62.71-.7,1.16l-8.44,39.43c-.08.45,0,.84.27,1.16.26.33.62.49,1.07.49h18.37c4.15,0,7.48-1.13,9.98-3.41,2.5-2.28,4.12-5.1,4.86-8.48.2-1.1.31-1.99.31-2.69,0-3.01-1.1-5.45-3.29-7.33.98-.53,2.11-1.58,3.39-3.14,1.28-1.57,2.17-3.51,2.66-5.83.16-.65.24-1.44.25-2.38,0-2.56-.84-4.78-2.53-6.65-1.69-1.87-4.49-2.81-8.39-2.81ZM845.86,826.96c-.45,2-1.44,3.64-2.96,4.94-1.53,1.3-3.57,1.95-6.14,1.95h-13.06s2.94-13.92,2.94-13.92h13.06c2.24,0,3.86.48,4.85,1.41,1,.94,1.49,2.2,1.49,3.78,0,.61-.06,1.22-.18,1.83ZM848.92,808.28c-.45,2.03-1.45,3.57-2.99,4.61-1.55,1.04-3.79,1.56-6.72,1.55h-11.41s2.63-12.33,2.63-12.33h12.94c3.87,0,5.8,1.43,5.8,4.28,0,.37-.08,1-.25,1.89Z"/>
    <path class="st1" d="M896.55,796.64h-2.5c-.45,0-.87.16-1.25.49-.39.33-.62.71-.7,1.16l-3.61,16.72h-21.49s3.61-16.73,3.61-16.73c.08-.45,0-.83-.27-1.16-.27-.33-.62-.49-1.07-.49h-2.5c-.45,0-.86.16-1.25.49-.39.33-.62.71-.7,1.16l-8.44,39.43c-.08.49,0,.88.27,1.19.26.31.62.46,1.07.46h2.5c.45,0,.86-.16,1.25-.49.39-.32.62-.71.7-1.16l3.67-17.21h21.49s-3.67,17.22-3.67,17.22c-.08.45,0,.84.28,1.16.26.33.62.49,1.07.49h2.5c.45,0,.86-.16,1.25-.49.39-.33.62-.71.7-1.16l8.44-39.43c.08-.45-.01-.83-.28-1.16-.27-.33-.62-.49-1.07-.49Z"/>
    <path class="st1" d="M929.3,797.76c-2.16-1.14-4.68-1.71-7.57-1.71-3.46,0-6.55.72-9.28,2.16-2.73,1.44-4.98,3.42-6.75,5.92-1.77,2.5-3.02,5.32-3.76,8.45-.82,3.26-1.59,6.88-2.32,10.86-.16.94-.25,1.93-.25,2.99,0,2.56.59,4.87,1.77,6.93,1.18,2.06,2.85,3.67,5,4.86,2.16,1.18,4.62,1.77,7.39,1.77,5.62,0,10-1.49,13.16-4.48,3.16-2.99,5.36-7.01,6.63-12.05.81-3.25,1.59-6.88,2.32-10.86.2-.98.31-2.08.31-3.3,0-2.52-.57-4.79-1.71-6.81-1.14-2.02-2.79-3.59-4.94-4.73ZM929.78,812.9c-.65,3.66-1.39,7.08-2.2,10.25-.94,3.74-2.63,6.57-5.07,8.48-2.44,1.91-5.43,2.87-8.97,2.87-2.36,0-4.33-.74-5.92-2.23-1.59-1.49-2.38-3.61-2.38-6.38,0-.98.08-1.89.25-2.75.69-3.66,1.43-7.08,2.2-10.25.94-3.74,2.63-6.57,5.07-8.48,2.44-1.91,5.43-2.87,8.97-2.87,2.36,0,4.33.75,5.92,2.23,1.59,1.49,2.38,3.61,2.38,6.38,0,.98-.08,1.89-.25,2.75Z"/>
  </g>
  <g>
    <path class="st1" d="M1144.02,697.72c-.01,9.52-7.75,17.26-17.27,17.25-9.52,0-17.26-7.74-17.26-17.27s7.75-17.26,17.27-17.25c9.52,0,17.26,7.75,17.26,17.27Z"/>
    <path class="st1" d="M1098.76,776.08c5.19,17.08,4.28,32.71,1.68,44.8-11.01,7.39-22.89,14.25-35.81,20.5-1.87.91-3.54-1.57-2-2.97,23.61-21.46,37.35-43.28,34.96-65.91.41,1.17.8,2.36,1.17,3.58Z"/>
    <path class="st1" d="M1207.3,702.39c-13.28,21.21-27.24,41.67-43.27,60.72,7.52-14.99,14.42-31.08,20.86-48.58,6.75-4.53,13.3-9.47,19.75-14.52,1.6-1.25,3.73.66,2.66,2.38Z"/>
    <path class="st1" d="M1182.6,703.16c-17.43,49.89-39.99,95.4-80.15,138.27-.86.92-2.35-.04-1.86-1.19,5.01-11.81,12.75-36.78,3.91-65.9-7.51-24.73-23.24-40.13-33.27-47.94-.9-.69-.12-2.1.95-1.7,15,5.58,45.66,13.47,77.32-.4,14.22-6.24,24.43-15.02,31.22-22.28.83-.88,2.28,0,1.88,1.14Z"/>
  </g>
  <g>
    <path class="st1" d="M1256.13,755.6c.47-2.12.93-4.24,1.4-6.36h1.21c1.1,2.13,2.21,4.24,3.31,6.36,2.23,4.29,4.47,8.58,6.71,12.86l5.92,11.36c.39.65.84,1.2,1.38,1.62.51.43,1.34.64,2.45.64h3.53c.65,0,1.25-.21,1.81-.64.55-.43.84-.93.84-1.52,0-.32-.1-.68-.29-1.08l-15.68-30.29,28.25-31.85c.39-.4.59-.85.59-1.38s-.16-.96-.49-1.32c-.32-.36-.75-.54-1.27-.54h-5.59c-.98,0-1.77.17-2.4.53-.62.36-1.29.93-2.01,1.72l-11.29,12.93c-4.04,4.64-8.09,9.28-12.15,13.91h-3.35c.29-1.31.57-2.61.86-3.92l4.72-22.55c.13-.71-.02-1.34-.45-1.86-.42-.52-1-.79-1.71-.79h-4.02c-.72,0-1.39.27-2.01.79-.62.52-1,1.14-1.13,1.86l-4.81,22.55c-.28,1.31-.56,2.61-.84,3.92h-3.13c-.67-1.31-1.36-2.61-2.03-3.92-1.57-3.04-3.14-6.07-4.71-9.11l-7.04-13.64c-.92-1.64-2.22-2.46-3.92-2.46h-3.53c-.65,0-1.22.26-1.72.78-.49.53-.74,1.08-.74,1.67,0,.13.07.39.2.79l14.78,28.82-29.42,33.32c-.4.4-.59.85-.59,1.38s.16.97.48,1.32c.33.36.75.54,1.27.54h5.59c.99,0,1.78-.17,2.4-.53.63-.36,1.29-.93,2.01-1.72l11.34-12.9c3.31-3.77,6.63-7.53,9.95-11.3,1.87-2.12,3.73-4.24,5.6-6.36h1.77c-.45,2.12-.91,4.24-1.36,6.36l-5.11,23.82c-.13.72,0,1.34.44,1.86.43.52,1,.79,1.72.79h4.01c.72,0,1.39-.26,2.01-.79.63-.52,1-1.14,1.13-1.86l5.11-23.82Z"/>
    <path class="st1" d="M1292.67,782.08h3.43c1.37,0,2.91-.98,4.61-2.94l41.78-46.45-10.02,46.76c-.13.72,0,1.34.39,1.86.39.52.95.78,1.67.78h4.02c.72,0,1.4-.26,2.06-.78.65-.52,1.04-1.14,1.18-1.86l13.46-63.32c.13-.72-.02-1.34-.44-1.86-.43-.52-1-.78-1.72-.78h-3.43c-.85,0-1.62.26-2.3.78-.69.52-1.42,1.24-2.21,2.16l-41.78,46.74,10.12-47.05c.13-.72-.02-1.34-.44-1.86-.43-.52-1-.78-1.72-.78h-4.02c-.72,0-1.39.26-2.01.78-.62.52-1,1.14-1.13,1.86l-13.56,63.32c-.13.72,0,1.34.39,1.86.39.52.95.78,1.67.79Z"/>
    <path class="st1" d="M1411.94,741.89c2.06-2.51,3.48-5.63,4.27-9.36.26-1.04.39-2.32.39-3.82,0-4.12-1.35-7.68-4.06-10.69-2.71-3.01-7.2-4.51-13.48-4.52h-26.57c-.72-.01-1.39.25-2.01.77-.62.52-1,1.14-1.13,1.86l-13.56,63.32c-.13.72.01,1.34.44,1.86.42.52.99.78,1.71.79h29.51c6.67.02,12.01-1.81,16.03-5.47,4.02-3.66,6.62-8.2,7.8-13.62.33-1.76.49-3.2.49-4.31,0-4.84-1.76-8.76-5.29-11.77,1.57-.85,3.38-2.53,5.44-5.05ZM1402.07,762.23c-.72,3.2-2.31,5.85-4.76,7.94-2.45,2.09-5.74,3.13-9.85,3.13h-20.98s4.72-22.36,4.72-22.36h20.98c3.59.01,6.19.76,7.79,2.27,1.6,1.51,2.4,3.53,2.4,6.08,0,.98-.1,1.96-.3,2.94ZM1406.99,732.24c-.72,3.27-2.32,5.73-4.81,7.4-2.48,1.67-6.08,2.5-10.78,2.5h-18.33s4.22-19.81,4.22-19.81h20.78c6.21.01,9.31,2.3,9.31,6.88,0,.59-.13,1.6-.39,3.04Z"/>
    <path class="st1" d="M1482.79,714.33c-.43-.52-1-.78-1.72-.78h-3.43c-.85,0-1.62.26-2.3.78-.69.52-1.42,1.24-2.21,2.16l-41.78,46.74,10.12-47.05c.13-.72-.02-1.34-.44-1.86-.43-.52-1-.78-1.72-.78h-4.02c-.72,0-1.39.26-2.01.78-.62.52-1,1.14-1.13,1.86l-13.56,63.32c-.13.72,0,1.34.39,1.86.39.52.95.78,1.67.79h3.43c1.37,0,2.91-.98,4.61-2.94l41.78-46.45-10.02,46.76c-.13.72,0,1.34.39,1.86.39.52.95.78,1.67.78h4.02c.72,0,1.4-.26,2.06-.78.65-.52,1.04-1.14,1.18-1.86l13.46-63.32c.13-.72-.02-1.34-.44-1.86Z"/>
    <path class="st1" d="M1239.6,796.81c-.28-1.32-1.04-1.98-2.28-1.98h-3.85c-1.28,0-2.32.66-3.12,1.98l-23.03,38.32c-.12.24-.18.46-.18.66,0,.28.1.53.3.75.2.22.46.33.78.33h2.7c.68,0,1.22-.14,1.62-.42.4-.28.74-.64,1.02-1.08l4.81-7.99h20.85s1.44,8,1.44,8c.2,1,.88,1.5,2.04,1.5h1.98c.52,0,.91-.14,1.17-.42.26-.28.39-.66.39-1.14,0-.24-.02-.44-.06-.6l-6.59-37.91ZM1221.62,821.97l12.93-21.44,3.71,21.45h-16.64Z"/>
    <path class="st1" d="M1287.78,794.85h-4.57c-.84,0-1.62.3-2.34.9l-19.05,14.17,2.89-13.46c.08-.44,0-.82-.27-1.14-.26-.32-.61-.48-1.05-.48h-2.46c-.44,0-.85.16-1.23.48-.38.32-.61.7-.69,1.14l-8.31,38.81c-.08.44,0,.82.27,1.14.26.32.61.48,1.05.48h2.46c.44,0,.85-.16,1.23-.48.38-.32.61-.7.69-1.14l3.43-16.04,13.93,16.77c.48.6,1.14.9,1.98.9h3.24c.44,0,.81-.15,1.11-.45.3-.3.45-.63.45-.99s-.12-.68-.36-.96l-16.33-19.53,24.16-17.71c.6-.44.9-.94.9-1.5,0-.28-.1-.5-.3-.66-.2-.16-.48-.24-.84-.24Z"/>
    <path class="st1" d="M1321.92,799.79c.4-.32.64-.7.72-1.14l.48-2.16c.08-.44,0-.82-.27-1.14-.26-.32-.61-.48-1.05-.48h-28.18c-.44-.01-.85.15-1.23.47-.38.32-.61.7-.69,1.14l-.48,2.16c-.08.44,0,.82.24,1.14.24.32.58.48,1.02.48h11.24s-7.47,35.03-7.47,35.03c-.08.44,0,.82.27,1.14.26.32.61.48,1.05.48h2.46c.44,0,.85-.16,1.23-.48.38-.32.61-.7.69-1.14l7.47-35.02h11.23c.44,0,.86-.15,1.26-.48Z"/>
    <path class="st1" d="M1357.81,794.88h-2.1c-.52,0-.99.16-1.41.48-.42.32-.87.76-1.35,1.32l-25.61,28.65,6.2-28.84c.08-.44,0-.82-.27-1.14-.26-.32-.61-.48-1.05-.48h-2.46c-.44,0-.85.16-1.23.48-.38.32-.61.7-.69,1.14l-8.31,38.81c-.08.44,0,.82.24,1.14.24.32.58.48,1.02.48h2.1c.84,0,1.78-.6,2.82-1.8l25.61-28.47-6.14,28.66c-.08.44,0,.82.24,1.14.24.32.58.48,1.02.48h2.46c.44,0,.86-.16,1.26-.48.4-.32.64-.7.72-1.14l8.25-38.81c.08-.44,0-.82-.27-1.14-.26-.32-.61-.48-1.05-.48Z"/>
    <path class="st1" d="M1386.2,794.89h-16.28c-.44,0-.85.15-1.23.47-.38.32-.61.7-.69,1.14l-8.31,38.81c-.08.44,0,.82.27,1.14.26.32.61.48,1.05.48h18.08c4.09,0,7.36-1.11,9.83-3.35,2.46-2.24,4.06-5.02,4.78-8.35.2-1.08.3-1.96.3-2.64,0-2.96-1.08-5.37-3.24-7.21.96-.52,2.07-1.55,3.34-3.09,1.26-1.54,2.13-3.45,2.62-5.74.16-.64.24-1.42.24-2.34,0-2.52-.83-4.71-2.49-6.55-1.66-1.84-4.42-2.77-8.26-2.77ZM1388.05,824.75c-.44,1.96-1.41,3.59-2.92,4.87-1.5,1.28-3.52,1.92-6.04,1.92h-12.86s2.89-13.7,2.89-13.7h12.86c2.2,0,3.79.47,4.78,1.39.98.92,1.47,2.16,1.47,3.73,0,.6-.06,1.2-.18,1.8ZM1391.06,806.37c-.44,2-1.42,3.51-2.95,4.53-1.52,1.02-3.73,1.53-6.61,1.53h-11.23s2.59-12.14,2.59-12.14h12.74c3.8,0,5.71,1.41,5.71,4.21,0,.36-.08.98-.24,1.86Z"/>
    <path class="st1" d="M1437.94,794.92h-2.46c-.44,0-.85.16-1.23.48-.38.32-.61.7-.69,1.14l-3.55,16.46h-21.15s3.55-16.47,3.55-16.47c.08-.44,0-.82-.27-1.14-.26-.32-.61-.48-1.05-.48h-2.46c-.44,0-.85.16-1.23.48-.38.32-.61.7-.69,1.14l-8.31,38.81c-.08.48,0,.87.27,1.17.26.3.61.45,1.05.45h2.46c.44,0,.85-.16,1.23-.48.38-.32.61-.7.69-1.14l3.61-16.94h21.15s-3.61,16.95-3.61,16.95c-.08.44,0,.82.27,1.14.26.32.61.48,1.05.48h2.46c.44,0,.85-.16,1.23-.48.38-.32.61-.7.69-1.14l8.31-38.81c.08-.44-.01-.82-.27-1.14-.26-.32-.61-.48-1.05-.48Z"/>
    <path class="st1" d="M1470.17,796.01c-2.12-1.12-4.61-1.68-7.45-1.69-3.4,0-6.45.71-9.13,2.13-2.69,1.42-4.9,3.36-6.64,5.82-1.74,2.46-2.98,5.24-3.7,8.32-.8,3.21-1.56,6.77-2.29,10.69-.16.92-.24,1.9-.24,2.94,0,2.52.58,4.8,1.74,6.82,1.16,2.02,2.8,3.62,4.92,4.78,2.12,1.16,4.55,1.74,7.27,1.75,5.53,0,9.84-1.47,12.95-4.41,3.11-2.94,5.28-6.9,6.52-11.86.8-3.2,1.56-6.77,2.29-10.69.2-.96.3-2.04.3-3.24,0-2.48-.56-4.72-1.68-6.7-1.12-1.98-2.74-3.54-4.86-4.66ZM1470.64,810.91c-.64,3.6-1.37,6.97-2.17,10.09-.92,3.69-2.59,6.47-4.99,8.35-2.4,1.88-5.35,2.82-8.83,2.82-2.32,0-4.27-.73-5.83-2.2-1.56-1.46-2.34-3.55-2.34-6.28,0-.96.08-1.86.24-2.7.68-3.6,1.4-6.97,2.17-10.09.92-3.68,2.59-6.47,4.99-8.35,2.4-1.88,5.35-2.82,8.83-2.82,2.32,0,4.27.73,5.83,2.2,1.56,1.46,2.34,3.56,2.34,6.28,0,.96-.08,1.86-.24,2.7Z"/>
  </g>
</svg>