<?xml version="1.0" encoding="UTF-8"?>
<svg id="Layer_1" xmlns="http://www.w3.org/2000/svg" version="1.1" viewBox="0 0 1920 1080">
  <!-- Generator: Adobe Illustrator 29.1.0, SVG Export Plug-In . SVG Version: 2.1.0 Build 142)  -->
  <defs>
    <style>
      .st0 {
        fill: #00b0e3;
      }

      .st1 {
        fill: #fff;
      }
    </style>
  </defs>
  <path d="M756.44,335.95v145.28c0,27.3-22.56,45.58-45.69,45.58-31.59,0-45.58-26.66-45.58-45.58v-111.65c0-21.77-10.88-33.62-33.62-33.62h-33.8v124.4c0,86.43,41.08,129.83,117.01,129.83,63.27,0,109.09-36.66,109.09-126.88v-127.35h-67.42ZM843.38,335.95v31.7c0,15.05,10.77,28.98,28.01,31.51h60.55v185.97h67.42v-185.97h77.58l-25.35-63.2h-208.21ZM1255.61,335.95l-54.13,148.82-56.7-148.82h-71.24s90.1,225.2,90.1,225.2c5.79,14.47,19.81,23.97,35.4,23.97h0c15.71,0,29.81-9.64,35.52-24.28l87.72-224.89h-66.68Z"/>
  <path class="st0" d="M1251.54,744.92h-653.63v-67.35c0-24.59,19.94-44.53,44.53-44.53h653.63v67.35c0,24.59-19.94,44.53-44.53,44.53"/>
  <g>
    <path class="st1" d="M649.01,721.66v-65.55h23.36c5.1,0,9.32.93,12.67,2.78,3.35,1.86,5.86,4.39,7.52,7.6,1.66,3.21,2.5,6.82,2.5,10.83s-.84,7.65-2.51,10.87c-1.68,3.21-4.19,5.75-7.55,7.62-3.36,1.87-7.58,2.8-12.66,2.8h-16.07v-8.39h15.17c3.22,0,5.84-.56,7.84-1.68,2-1.12,3.48-2.65,4.42-4.59.94-1.94,1.41-4.15,1.41-6.63s-.47-4.67-1.41-6.59c-.94-1.92-2.42-3.42-4.43-4.51s-4.67-1.63-7.95-1.63h-12.42v57.07h-9.89Z"/>
    <path class="st1" d="M707.52,721.66v-65.55h23.36c5.08,0,9.3.88,12.66,2.62,3.36,1.75,5.87,4.16,7.54,7.25,1.66,3.08,2.5,6.64,2.5,10.67s-.84,7.54-2.51,10.58c-1.68,3.04-4.19,5.41-7.55,7.09-3.36,1.68-7.58,2.53-12.66,2.53h-17.7v-8.51h16.8c3.2,0,5.81-.46,7.83-1.38,2.02-.92,3.49-2.25,4.43-4,.94-1.75,1.41-3.85,1.41-6.31s-.48-4.62-1.42-6.43c-.95-1.81-2.43-3.2-4.45-4.18s-4.66-1.46-7.92-1.46h-12.42v57.07h-9.89ZM739.88,692.09l16.2,29.57h-11.27l-15.88-29.57h10.95Z"/>
    <path class="st1" d="M823.49,688.88c0,7-1.28,13.01-3.84,18.04-2.56,5.02-6.07,8.89-10.51,11.59-4.45,2.7-9.5,4.05-15.15,4.05s-10.74-1.35-15.19-4.05c-4.45-2.7-7.95-6.57-10.51-11.6s-3.84-11.04-3.84-18.02,1.28-13.01,3.84-18.04,6.07-8.89,10.51-11.59c4.45-2.7,9.51-4.05,15.19-4.05s10.71,1.35,15.15,4.05c4.45,2.7,7.95,6.56,10.51,11.59,2.56,5.02,3.84,11.04,3.84,18.04ZM813.69,688.88c0-5.33-.86-9.83-2.58-13.49-1.72-3.66-4.06-6.43-7.04-8.32-2.98-1.89-6.34-2.83-10.1-2.83s-7.15.94-10.11,2.83c-2.97,1.89-5.31,4.66-7.03,8.32-1.72,3.66-2.58,8.16-2.58,13.49s.86,9.83,2.58,13.49c1.72,3.66,4.06,6.43,7.03,8.32,2.96,1.89,6.34,2.83,10.11,2.83s7.12-.94,10.1-2.83c2.98-1.89,5.32-4.66,7.04-8.32,1.72-3.66,2.58-8.16,2.58-13.49Z"/>
    <path class="st1" d="M857.9,721.66h-21.22v-65.55h21.89c6.42,0,11.94,1.31,16.55,3.92,4.61,2.61,8.15,6.36,10.61,11.23,2.46,4.88,3.7,10.72,3.7,17.52s-1.24,12.69-3.73,17.6c-2.49,4.91-6.08,8.68-10.77,11.31-4.69,2.64-10.37,3.95-17.03,3.95ZM846.57,713.02h10.79c4.99,0,9.14-.94,12.45-2.83,3.31-1.89,5.78-4.63,7.43-8.23,1.64-3.6,2.46-7.99,2.46-13.17s-.82-9.51-2.45-13.09c-1.63-3.58-4.06-6.31-7.28-8.16-3.22-1.86-7.22-2.78-12-2.78h-11.39v48.27Z"/>
    <path class="st1" d="M944.77,656.11h9.92v43.11c0,4.59-1.07,8.65-3.23,12.18-2.15,3.53-5.18,6.31-9.09,8.32-3.9,2.02-8.48,3.02-13.73,3.02s-9.79-1.01-13.7-3.02c-3.9-2.02-6.93-4.79-9.09-8.32-2.16-3.53-3.23-7.59-3.23-12.18v-43.11h9.89v42.31c0,2.96.65,5.6,1.97,7.91,1.31,2.3,3.18,4.11,5.59,5.43,2.42,1.31,5.27,1.97,8.58,1.97s6.21-.66,8.63-1.97c2.42-1.31,4.28-3.12,5.57-5.43,1.3-2.3,1.94-4.94,1.94-7.91v-42.31Z"/>
    <path class="st1" d="M1024.43,677.43h-9.99c-.38-2.13-1.1-4.01-2.14-5.63-1.04-1.62-2.32-3-3.84-4.13-1.52-1.13-3.2-1.98-5.07-2.56-1.87-.58-3.84-.86-5.94-.86-3.78,0-7.15.95-10.13,2.85s-5.33,4.68-7.04,8.35c-1.72,3.67-2.58,8.15-2.58,13.44s.86,9.84,2.58,13.51c1.72,3.67,4.07,6.45,7.06,8.32,2.99,1.88,6.35,2.82,10.08,2.82,2.07,0,4.04-.28,5.91-.85s3.56-1.4,5.07-2.51c1.52-1.11,2.8-2.47,3.86-4.08s1.79-3.46,2.19-5.55l9.99.03c-.53,3.22-1.56,6.18-3.09,8.88-1.52,2.7-3.48,5.02-5.86,6.98s-5.09,3.46-8.15,4.53c-3.05,1.07-6.38,1.6-9.99,1.6-5.68,0-10.73-1.35-15.17-4.05-4.44-2.7-7.93-6.57-10.48-11.6-2.55-5.04-3.82-11.04-3.82-18.02s1.28-13.01,3.84-18.04,6.06-8.89,10.5-11.59c4.44-2.7,9.49-4.05,15.14-4.05,3.48,0,6.73.5,9.75,1.49s5.73,2.44,8.15,4.35c2.41,1.91,4.4,4.24,5.99,6.98,1.58,2.74,2.64,5.87,3.2,9.39Z"/>
    <path class="st1" d="M1033.94,664.62v-8.51h50.73v8.51h-20.45v57.03h-9.86v-57.03h-20.42Z"/>
    <path class="st1" d="M1106.63,656.11v65.55h-9.89v-65.55h9.89Z"/>
    <path class="st1" d="M1178.88,688.88c0,7-1.28,13.01-3.84,18.04-2.56,5.02-6.07,8.89-10.51,11.59-4.45,2.7-9.5,4.05-15.15,4.05s-10.74-1.35-15.19-4.05c-4.45-2.7-7.95-6.57-10.51-11.6-2.56-5.04-3.84-11.04-3.84-18.02s1.28-13.01,3.84-18.04c2.56-5.02,6.07-8.89,10.51-11.59,4.45-2.7,9.51-4.05,15.19-4.05s10.71,1.35,15.15,4.05c4.45,2.7,7.95,6.56,10.51,11.59s3.84,11.04,3.84,18.04ZM1169.08,688.88c0-5.33-.86-9.83-2.58-13.49s-4.06-6.43-7.04-8.32c-2.98-1.89-6.34-2.83-10.1-2.83s-7.15.94-10.11,2.83c-2.96,1.89-5.31,4.66-7.03,8.32-1.72,3.66-2.58,8.16-2.58,13.49s.86,9.83,2.58,13.49c1.72,3.66,4.06,6.43,7.03,8.32,2.96,1.89,6.34,2.83,10.11,2.83s7.12-.94,10.1-2.83c2.98-1.89,5.33-4.66,7.04-8.32s2.58-8.16,2.58-13.49Z"/>
    <path class="st1" d="M1244.97,656.11v65.55h-9.09l-33.32-48.07h-.61v48.07h-9.89v-65.55h9.15l33.35,48.14h.61v-48.14h9.79Z"/>
  </g>
</svg>