<svg id="Слой_1" data-name="Слой 1" xmlns="http://www.w3.org/2000/svg" width="64.56mm" height="64.56mm" viewBox="0 0 182.99 183">
  <path d="M414.73,206.59v85.29H386.3V263.45H357.88v28.43H329.45V206.59h28.43V235H386.3V206.59Zm94.13,115.7V300.7h-85.3V386h85.3V364.63H465.52v-8.45h43.34V330.3H465.52v-8ZM386.31,300.7l-14.2,24.51L358,300.7H329.45V386h28.43V361.38L372.09,386l14.21-24.62V386h28.43V300.7Zm72.49-46.14V235.32l-15.23,19.24Zm53.64-5.33A46.23,46.23,0,1,1,466.21,203,46.23,46.23,0,0,1,512.44,249.23Zm-48.52,5.33h-3V231.32h-1.81L440.48,255v1.65H458.8V265h2.14v-8.32h3ZM490.6,265l-19.08-16.87,17-16.68h-3l-16,15.69V231.46h-2.14V265h2.14V249.25L487.36,265Z" transform="translate(-329.45 -203)"/>
</svg>
