<?xml version="1.0" encoding="UTF-8"?>
<svg id="Layer_1" xmlns="http://www.w3.org/2000/svg" version="1.1" viewBox="0 0 845.27 512">
  <!-- Generator: Adobe Illustrator 29.1.0, SVG Export Plug-In . SVG Version: 2.1.0 Build 142)  -->
  <defs>
    <style>
      .st0 {
        fill: #fff;
      }

      .st1 {
        fill: #d72027;
      }
    </style>
  </defs>
  <path class="st1" d="M677.89,411.25H182.9c-90.06,0-129.55-53.82-129.55-120.21h0c0-66.39,39.48-120.21,129.55-120.21h494.99c90.06,0,129.55,53.82,129.55,120.21h0c0,66.39-39.48,120.21-129.55,120.21Z"/>
  <g>
    <path class="st0" d="M208.94,344.87c-3.46,7.33-8.13,13.64-14,18.95-5.88,5.31-12.8,9.41-20.76,12.31-7.97,2.9-16.53,4.34-25.71,4.34-6.44,0-12.88-1.73-19.31-5.19-4.72-2.54-9.31-6.17-13.77-10.92-3.02-3.21-3.59-8.03-1.58-11.95l14.63-28.67c1.12,2.09,2.81,4.22,5.07,6.4,2.25,2.17,4.79,4.07,7.6,5.67,2.81,1.61,5.63,2.94,8.45,3.98,2.81,1.05,5.35,1.57,7.6,1.57,1.93,0,3.94-.32,6.04-.97,2.09-.64,4.02-1.61,5.79-2.9,1.77-1.29,3.18-2.77,4.22-4.46,1.04-1.69,1.57-3.66,1.57-5.91,0-3.86-1.25-7.44-3.74-10.74-2.5-3.3-5.59-6.43-9.29-9.41-3.7-2.98-7.72-5.99-12.07-9.05-4.35-3.05-8.33-6.28-11.95-9.66-3.62-3.38-6.72-7.16-9.29-11.35-2.58-4.18-3.86-8.85-3.86-14,0-8.37,1.88-16.84,6.63-24.24,4.96-7.73,9.59-12.88,18.89-19.37,9.3-6.49,15.39-8.68,24.24-11.74,8.85-3.06,18.15-3.79,26.04-3.79,4.35,0,8.45.52,12.31,1.57,3.86,1.05,7.2,2.74,10.02,5.07,2.81,2.34,5.07,5.27,6.76,8.81,1.81,3.8,2.65,8.61,2.52,14.44-.04,2-.32,3.99-.65,5.96l-.07.39c-.69,4-3.6,7.26-7.5,8.39l-28.46,8.24c.3-1.21.57-2.42.8-3.64.26-1.37.41-2.77.4-4.16,0-4.79-.85-8.26-2.53-10.42-1.69-2.17-3.9-3.26-6.64-3.26-1.29,0-2.86.48-4.71,1.45-1.85.97-3.7,2.21-5.55,3.74-1.85,1.53-3.42,3.34-4.71,5.43-1.29,2.09-1.93,4.35-1.93,6.76,0,3.86,1.09,7.08,3.26,9.66,2.17,2.58,4.87,4.99,8.09,7.24,3.22,2.26,6.72,4.55,10.5,6.88,3.78,2.33,7.28,5.35,10.5,9.05,3.22,3.7,5.91,8.33,8.09,13.88,2.17,5.55,3.26,12.59,3.26,21.12,0,9.01-1.73,17.18-5.19,24.5Z"/>
    <path class="st0" d="M311.41,332.72c1.77-7.76,3.58-16.28,5.43-25.57,1.85-9.29,3.74-18.74,5.67-28.36,1.93-9.61,3.66-18.86,5.19-27.75,1.53-8.88,2.93-16.8,4.22-23.75,1.29-6.95,2.73-14.62,4.34-23.02,0,0-11.67,1.11-19.54,1.61-2.65.17-5.8.33-8.67.46-4.97.23-9.09,3.9-9.94,8.8-2.12,12.21-4.29,24.1-6.52,35.66-1.13,6.14-2.29,12.44-3.5,18.9-1.21,6.47-2.41,12.81-3.62,19.03-1.21,6.22-2.42,12.2-3.62,17.93-1.21,5.74-2.29,10.95-3.26,15.63-.48,1.78-1.01,4.24-1.57,7.39-.57,3.15-1.45,6.26-2.66,9.33-1.21,3.07-2.7,5.7-4.47,7.88-1.77,2.18-4.03,3.27-6.76,3.27-1.93,0-3.54-.85-4.83-2.54-1.29-1.7-1.93-3.84-1.93-6.42,0-3.23.36-6.82,1.09-10.79.72-3.96,1.37-7.23,1.93-9.82.56-2.58,1.28-5.94,2.17-10.06.88-4.12,1.93-9.01,3.14-14.66,1.21-5.65,2.49-11.87,3.86-18.66,1.37-6.79,2.78-13.57,4.22-20.36,3.22-15.83,6.92-33.52,11.1-53.08-4.83.49-11.02,1.43-19.94,2.24-3.52.32-8.14.76-12.15,1.1-4.65.4-8.47,3.79-9.41,8.36-.16.77-.32,1.6-.5,2.48-1.13,5.57-2.46,12.56-3.98,20.96-1.53,8.4-3.26,17.73-5.19,27.99-1.93,10.26-3.71,20.48-5.31,30.66-1.61,10.18-3.14,19.96-4.59,29.33-1.45,9.37-2.5,17.37-3.14,23.99-.16.65-.24,1.29-.24,1.94v1.94c0,5.01,1,9.37,3.02,13.09,2.01,3.72,4.54,6.79,7.6,9.21,3.06,2.42,6.52,4.24,10.38,5.45,3.86,1.21,7.64,1.82,11.35,1.82,6.28,0,12.55-.97,18.83-2.91,6.28-1.94,12.19-5.01,17.74-9.21,5.55-4.2,10.38-9.53,14.48-16,4.1-6.46,7.28-14.3,9.53-23.51Z"/>
    <path class="st0" d="M304.57,380.24c7.08-21.44,14.16-43.82,20.6-64.46,2.73-8.71,5.55-17.82,8.45-27.33,2.9-9.51,5.8-18.95,8.69-28.3,2.9-9.35,5.59-18.38,8.09-27.09,1.66-5.8,3.2-11.32,4.61-16.55,1.21-4.48,5.22-7.62,9.86-7.76,5.95-.18,11.66-.55,17.19-1.04,11.52-1.01,16.44-1.62,25.67-2.95-.48,3.55-1.01,7.54-1.57,11.97-.57,4.44-1.21,9.07-1.93,13.91-.72,4.84-1.49,9.84-2.29,15-.81,5.16-1.77,11.77-2.9,19.83-1.13,8.07-2.66,18.14-4.59,30.23h3.14c4.66-12.25,8.53-22.45,11.59-30.6,3.05-8.14,5.55-14.79,7.48-19.96,1.93-5.16,3.9-10.2,5.91-15.12,2.01-4.92,3.94-9.59,5.79-14.03.89-2.13,1.75-4.13,2.58-6.02,1.54-3.49,4.8-5.88,8.59-6.27,4.89-.5,11.2-1.25,16-2.09,7.25-1.27,18.34-3.07,22.68-3.88-1.61,9.35-3.14,18.95-4.59,28.78-1.45,9.84-2.74,19.63-3.86,29.39-1.13,9.76-2.21,19.39-3.26,28.9-1.05,9.52-1.97,18.54-2.78,27.09-1.66,17.15-3.14,33.95-4.44,50.39-.38,4.81-3.95,8.73-8.69,9.58l-33.94,6.06c0-.81.12-2.98.36-6.53.24-3.55.56-7.9.97-13.06.4-5.16.96-10.88,1.69-17.17.72-6.29,1.45-12.58,2.17-18.87.73-6.29,1.49-12.37,2.29-18.26.8-5.88,1.61-10.92,2.41-15.12h-2.17c-2.26,6.77-4.75,13.91-7.48,21.4-2.74,7.5-5.51,15.12-8.33,22.86-2.82,7.74-5.59,15.32-8.33,22.74-1.81,4.91-3.48,9.68-5.01,14.31-1.38,4.18-5.23,7.05-9.63,7.23-2.59.11-4.95.22-7.09.35-4.03.24-8.69.53-14,.85l7.73-89.73h-3.62c-.33,2.1-1.13,5.6-2.42,10.52-1.29,4.92-2.78,10.56-4.47,16.93-1.69,6.37-3.5,12.98-5.43,19.83-1.93,6.86-3.74,13.22-5.43,19.11-1.69,5.89-3.1,10.72-4.22,14.51l-.2.67c-1.26,4.25-5.04,7.27-9.46,7.57l-32.42,2.17Z"/>
    <path class="st0" d="M494.02,375.75c-4.27.41-8.65.89-13.16,1.46-4.51.57-8.57,1.09-12.19,1.58-3.62.49-5.59.81-5.91.97,1.6-6.96,3.26-14.7,4.95-23.2,1.69-8.5,3.42-17.41,5.19-26.73,1.77-9.31,3.46-18.75,5.07-28.31,1.61-9.56,3.14-18.79,4.59-27.7,2.99-18.31,5.97-37.07,8.95-56.26.71-4.54,4.25-8.13,8.79-8.86l30.05-4.85c-3.7,21.71-7.33,43.01-10.86,63.9-1.45,8.91-2.94,18.14-4.47,27.7-1.53,9.56-3.06,19.03-4.59,28.43-1.53,9.4-2.94,18.51-4.22,27.33-.81,5.52-1.58,10.71-2.32,15.57-.73,4.81-4.65,8.49-9.5,8.94l-.37.03Z"/>
    <path class="st0" d="M512,380.24c4.83-22.53,9.33-44.42,13.52-65.66,1.61-9.17,3.3-18.67,5.07-28.48,1.77-9.81,3.42-19.55,4.95-29.21,1.53-9.66,2.9-19.03,4.11-28.12.67-5.09,1.26-9.91,1.76-14.47.62-5.7,5.68-9.84,11.4-9.37,4.38.36,9.01.72,11.88.84,5.74.24,12.99.43,17.82.43-.16.65-.41,1.85-.73,3.62-.32,1.77-.72,3.9-1.21,6.4-.48,2.5-1.01,5.27-1.57,8.33-.57,3.06-1.17,6.12-1.81,9.17-1.29,7.08-2.74,15.05-4.34,23.9l1.45-.24c1.61-2.57,3.9-6.15,6.88-10.74,2.98-4.59,6.07-9.45,9.29-14.6,3.22-5.15,6.35-10.1,9.41-14.84,1.84-2.85,3.56-5.87,5.1-8.56,1.71-3,4.78-4.93,8.22-5.25,6.15-.58,12.2-1.28,18.43-1.9,8.05-.8,16.21-2.43,24.26-3.72-7.57,10.14-14.89,22.05-21.97,31.86-3.06,4.19-6.16,8.53-9.29,13.04-3.14,4.51-6.24,8.93-9.29,13.28-3.06,4.35-5.91,8.53-8.57,12.55-2.65,4.02-5.03,7.72-7.12,11.1,3.54,16.26,7.73,31.95,12.55,47.07,3.72,11.65,7.49,23.5,11.3,35.53,1.66,5.23-2.32,10.57-7.81,10.45h-.12c-3.86-.08-7.65-.12-11.35-.12-4.67,0-9.17.04-13.52.12-4.35.08-8.85.2-13.52.36-1.45-10.46-3.02-21.44-4.71-32.95-1.69-11.5-3.26-22.49-4.71-32.95l-4.35,5.07c-1.38,5.36-4.58,16.35-6.24,26.71-1.39,9.04-3.19,19.8-4.68,28.09-.81,4.48-4.38,7.92-8.88,8.59l-31.62,4.69Z"/>
    <path class="st0" d="M745.5,287.75c-2.27,11.39-5.5,21.84-9.71,31.34-4.21,9.51-9.23,17.99-15.06,25.45-5.84,7.46-12,13.82-18.51,19.09-6.5,5.26-13.15,9.27-19.94,12.02-6.79,2.75-13.32,4.12-19.59,4.12-5.31,0-10.19-.98-14.63-2.94-4.44-1.96-8.37-4.87-11.77-8.72-3.41-3.85-6.18-8.8-8.32-14.84-2.15-6.04-3.42-13.31-3.83-21.79-.43-8.8.25-18.06,2.03-27.8,1.78-9.74,4.37-19.4,7.77-28.98,3.4-9.58,7.7-18.69,12.92-27.33,5.21-8.64,11.04-16.29,17.47-22.97,6.44-6.67,13.42-11.98,20.96-15.9,7.53-3.92,15.48-5.89,23.85-5.89,7.24,0,13.31,1.45,18.19,4.36,4.89,2.91,8.77,6.68,11.65,11.31,2.88,4.63,5.02,9.86,6.43,15.67,1.4,5.81,2.25,11.63,2.53,17.44.62,12.88-.2,25.02-2.46,36.4ZM661.04,330.75c.73,1.88,1.7,3.53,2.9,4.95,1.19,1.42,2.66,2.63,4.4,3.65,1.74,1.02,3.58,1.53,5.51,1.53,7.24,0,13.56-2.43,18.96-7.3,5.4-4.87,9.77-10.84,13.13-17.91,3.36-7.07,5.85-14.61,7.47-22.62,1.62-8.01,2.27-15.31,1.95-21.91-.09-1.89-.31-3.92-.66-6.13-.35-2.2-.93-4.24-1.74-6.13-.82-1.89-2.02-3.49-3.61-4.83-1.6-1.33-3.68-2-6.25-2-5.15,0-9.84,1.26-14.06,3.77-4.22,2.52-7.96,5.85-11.22,10.01-3.26,4.16-6.05,8.88-8.37,14.14-2.32,5.26-4.28,10.6-5.86,16.02-1.59,5.42-2.66,10.72-3.21,15.9-.56,5.18-.74,9.66-.56,13.43.08,1.73.49,3.53,1.23,5.42Z"/>
  </g>
</svg>