<?xml version="1.0" encoding="UTF-8"?>
<svg id="_Слой_1" data-name="Слой_1" xmlns="http://www.w3.org/2000/svg" version="1.1" viewBox="0 0 841.89 595.28">
  <!-- Generator: Adobe Illustrator 29.1.0, SVG Export Plug-In . SVG Version: 2.1.0 Build 142)  -->
  <defs>
    <style>
      .st0 {
        fill: #f79320;
      }

      .st1 {
        fill-rule: evenodd;
      }

      .st1, .st2 {
        fill: #81298e;
      }

      .st3 {
        fill: #f58220;
      }
    </style>
  </defs>
  <g>
    <path class="st2" d="M362.67,320.5c-.87-1.23-2.57-1.64-4.48-1.16-1.96.48-4.96,1.57-8.44,2.82-3.4,1.23-7.26,2.62-10.86,3.7-10.27,3.08-20.13,3.73-26.59,3.73-.29,0-.56,0-.83,0,0,0-8.53-4.83-11.91-9.37-4.35-5.85-4.2-6.81-5.97-10.75-1.65-3.67-3.34-5.88-7.4-5.78-4.06.09-6.98,1.34-10.26,1.97-4.52.86-8.11,1.26-14.34,1.88-8.25.82-12.29.7-17.67,1.26-7.15.74-14.11.97-18.39.61-2.9-.24-5.82-.87-11.83-4.36-5.7-3.31-9.06-7.04-14.48-12.96-3.96-4.34-6.46-6.54-9.15-6.42-2.69.12-4.59.42-6.95,4.36-3.14,5.26-6.11,10.15-9.29,13.24-5.31,5.16-9.64,8.07-11.84,8.98-11.83,4.95-20.81,1.6-30.12.38-6.65-.87-22.01-4.71-26.45-5.58-7.04-1.39-6.74,3.68-6.19,4.66,1.97,3.5,6.15,1.95,16.8,4.31,9.45,2.1,17.54,5.37,25.95,6.01,4.89.39,6.49,11.6,1.35,23.92-3.45,8.27-5.04,28.4-8.59,35.91-4.39,9.28-.82,9.05,1.44,9.4,2.25.35,4.92.98,7.13,1.99,1.63.75,3.19,1.82,5.85.64,1.43-.63,2.82-1.47,2.85-2.63.02-.79-.57-1-1.48-1.19-.9-.19-4.72-.44-6.44-1.93-.43-16.16,4.32-26.55,8.55-33.55,2.61-.3,5.9-.81,8.77-1.11,4.69,10.44,9.94,27.3,12.84,43.37.43,2.4,2.28,2.95,4.4,2.59,2.46-.43,2.5-2.09,8.11-4.18,4.53-1.69,10.51-2.91,12.19-4.81,1.6-1.82.12-4.34-2.26-4.05-2.38.28-2.23.06-3.95.16-1.86.11-2.13,1.14-5.67,2.47-1.39.53-2.73,1.12-4.11,1.3-8.76-26.9-12.47-38.68-14.43-50.44-1.2-7.17,1.36-10.94.48-15.49-.49-2.55.92-3.9,2.41-5.46,4.82-5.06,9.64-10.83,13.5-15.83,3.93-5.08,5.58-8.15,5.58-8.15,0,0,2.81,3.22,6.31,7.16,3.73,4.19,8.19,9.02,12.98,12.74,3.7,2.88,6.44,4.01,7.63,7.97l.4,4.76c.53,7.68.92,12.47.23,26.11-.92,7.12-5.29,24.43-9.51,33.32-5.05,10.67-.94,10.42,1.67,10.82,2.59.4,5.66,1.12,8.2,2.29,1.88.86,3.66,2.09,6.74.73,1.64-.72,3.25-1.69,3.29-3.02.02-.91-.66-1.15-1.7-1.37-1.04-.22-5.43-.5-7.41-2.22-.5-18.6,5.29-30.74,11.44-38.33,5.96-.44,10.67-1.54,16.76-1.78,5.13,16.26,8.71,31.64,12.05,50.14.5,2.77,2.62,3.39,5.07,2.97,2.83-.48,2.88-2.4,9.34-4.8,5.21-1.93,12.1-3.35,14.02-5.54,1.84-2.09.14-4.99-2.59-4.67-2.75.34-2.57.06-4.55.19-2.14.13-2.45,1.31-6.53,2.85-1.61.6-3.14,1.29-4.73,1.49-6.85-19.14-15.77-68.41-16.58-74.56l-.58-3.36c4.59-1.65,9.89-1.86,19.25-3.77,7.78-1.59,10.52-2.56,14.3-3.72,1.96,3.97,3.75,7.52,7.95,13.93,3.16,4.82,9.83,9.1,10.05,14.24.1,1.77.15,3.47.19,5.24.11,4.73,1.05,9.64.29,16.95-.56,3.79-1.98,8.49-3.22,12.99-1.05,3.8-2.04,7.38-3.38,10.22-1.67,3.52-2.12,5.74-1.44,6.99.56,1.02,1.69,1.17,2.59,1.29l.37.05c1.54.23,3.78.7,5.7,1.58l.45.21c.75.37,1.61.78,2.67.78.66,0,1.32-.16,2.04-.47,1.19-.53,2.57-1.3,2.6-2.56.03-1.1-.97-1.31-1.58-1.43-.14-.03-.36-.06-.63-.1-1.05-.15-3.16-.44-4.27-1.25-.25-10.76,2.41-19.68,7.91-26.54,1.37-.15,2.63-.33,3.84-.5,2.46-.35,4.79-.67,7.47-.73,3.42,10.9,5.95,21.45,8.43,35.19.36,1.96,1.86,2.87,4.13,2.49,1.02-.18,1.59-.59,2.31-1.11.83-.6,1.95-1.42,4.4-2.32,1.13-.42,2.39-.81,3.61-1.19,2.82-.88,5.49-1.7,6.52-2.87.68-.77.85-1.76.46-2.64-.45-1-1.5-1.58-2.69-1.44-1.3.15-1.59.13-1.99.11-.31,0-.64-.02-1.22.02-.92.06-1.42.36-2.13.77-.59.35-1.32.78-2.64,1.28l-.59.23c-.79.31-1.55.6-2.3.74-4.8-13.46-11.61-48.29-11.15-56.8,6.53-1.12,15.34-4.63,18.69-5.82,3.78-1.33,6.25-1.88,8.06-2.28,1.55-.35,2.66-.59,3.68-1.14.93-.5,1.63-1.41,1.87-2.43.21-.91.05-1.81-.47-2.53"/>
    <path class="st2" d="M317.8,325.16c3.1-.54,4.21-3.55,4.59-4.66.38-1.11.46-3.73-.45-5.93-1.01-2.41-3.19-4.2-5.98-4.28-5.79-.16-7.49,4.46-7.03,8.18.63,5.12,4.13,7.52,8.88,6.69"/>
    <path class="st2" d="M152.77,310.37c.18,0,.36,0,.53,0,2.4-.1,4.31-1.62,5.7-4.54.55-1.17,1.01-3.99.29-6.64-.86-3.14-3.16-5.33-6.01-5.73-2.89-.4-5.2.22-6.79,1.82-1.92,1.92-2.31,4.72-2.31,6.72.01,5.17,3.31,8.38,8.59,8.38"/>
    <path class="st2" d="M235.19,303.82h0c.51-.15,1.04-.33,1.56-.55,2.76-1.13,4.57-3.59,5.25-7.13.3-1.56-.05-5.02-1.78-7.86-2-3.29-5.41-5.04-8.91-4.55-3.89.55-6.54,2.26-7.8,5.03-.99,2.16-1.08,4.98-.26,7.94,1.67,6.02,6.25,8.75,11.94,7.11"/>
  </g>
  <path class="st3" d="M240.24,181.51c-2.48-.14-4.96-.2-7.43-.2-44.44,0-88.14,21.52-115.5,57.31-1.12,1.46-1.6,3.27-1.35,5.09.24,1.82,1.18,3.44,2.64,4.56,1.46,1.12,3.26,1.6,5.08,1.36,1.82-.24,3.45-1.18,4.56-2.64,24.77-32.41,64.35-51.9,104.58-51.9,2.22,0,4.45.06,6.67.18,38.85,2.08,77,23.07,99.56,54.76,1.29,1.81,3.39,2.89,5.61,2.89,1.44,0,2.81-.44,3.98-1.27,3.09-2.2,3.82-6.51,1.62-9.6-25.32-35.56-66.45-58.18-110.04-60.52Z"/>
  <path class="st2" d="M316.45,249.07c-7.62-8.53-35.99-36.45-81.01-37.73-1.09-.03-2.18-.05-3.25-.05-44.82,0-73.88,26.85-81.86,35.24-1.27,1.33-1.94,3.08-1.89,4.92s.81,3.55,2.14,4.81c1.29,1.23,2.96,1.89,4.74,1.89.06,0,.12,0,.18,0,1.84-.05,3.55-.81,4.81-2.14,7.02-7.39,32.54-30.97,71.69-30.97,1.01,0,2.03.02,3.06.05,39.53,1.13,64.44,25.66,71.14,33.15,1.31,1.46,3.18,2.29,5.13,2.29,1.69,0,3.32-.62,4.58-1.75,2.83-2.53,3.07-6.89.55-9.72Z"/>
  <path class="st3" d="M233.86,252.8c18.44.45,30.71,10.47,35.13,14.76,1.29,1.25,2.99,1.94,4.79,1.94s3.63-.74,4.94-2.09c2.64-2.72,2.57-7.09-.15-9.73-5.58-5.42-21.09-18.08-44.38-18.64-.49-.01-.98-.02-1.47-.02-23.16,0-38.88,12.02-44.64,17.28-2.8,2.56-3,6.92-.44,9.72,2.56,2.8,6.92,3,9.72.44,4.56-4.16,17.02-13.68,35.43-13.68.35,0,.71,0,1.07.01Z"/>
  <g>
    <path class="st0" d="M402.51,355.26h-11.48l-.08,2.76c-.04,2.04-.19,4.32-.78,6.82-.49,1.97-1.27,4.17-2.46,6.3h-1.45v8.32h3.8v-5.34h11v5.34h3.81v-8.32h-2.35v-15.89ZM398.45,371.15h-7.09c.78-1.53,1.56-3.43,2.01-5.22.41-1.72.71-3.92.78-5.93l.08-1.76h4.21v12.91ZM417.31,354.78c-1.56,0-3.57.53-5.03,2.24,0-.71-.11-1.45-.3-2.24l-3.77.68c.19.82.37,2.2.37,4.7v22l3.95-1.01v-5.52c0-.7-.04-1.72-.11-2.57,1.79,1.38,3.5,1.57,4.44,1.57,2.42,0,3.96-.97,4.85-1.83,1.53-1.49,2.72-4.17,2.72-8.31s-1.27-6.6-2.54-7.87c-.89-.9-2.39-1.83-4.59-1.83ZM418.39,370.37c-.59.56-1.27.78-2.09.78-1.53,0-2.79-.75-3.76-1.68v-9.28c.82-.86,2.2-1.95,4.07-1.95.78,0,1.49.19,2.12.86,1.09,1.11,1.31,3.17,1.31,5.59,0,1.46,0,4.17-1.64,5.67ZM439.53,355.26h4.41l-6.98,20.14c-1.01,2.9-2.01,4.07-2.57,4.66-1.19,1.23-2.5,1.68-4.47,2.13l-1.35-2.65c1.83-.48,2.65-1.11,3.14-1.64.45-.45,1.34-1.53,1.97-3.77h-1.3c-.71-2.65-1.19-4.07-1.6-5.33l-4.47-13.24,4.18-.7,3.47,11.48c.29,1,.74,2.91,1.01,4.21h.07c.41-1.72.93-3.58,1.38-5.07l3.13-10.22ZM457.88,365.48c.67.68,1.27,1.68,1.27,3.17,0,1.68-.7,3.14-1.67,4.07-1.23,1.19-3.24,1.9-5.75,1.9-2.68,0-4.21-.63-5.14-1.16-.75-.41-1.34-.9-1.72-1.19l1.79-2.65c.6.52,1.23.93,1.87,1.23.93.45,1.83.63,2.76.63,1.19,0,2.01-.33,2.5-.78.52-.49.86-1.31.86-2.06,0-.9-.34-1.57-.78-1.97-.82-.75-2.13-.82-2.8-.82h-2.01v-3.13h2.16c.71,0,1.72-.08,2.43-.75.48-.45.67-.97.67-1.64,0-.59-.11-1.15-.63-1.64-.56-.53-1.49-.78-2.42-.78-1.19,0-2.12.37-2.42.48-.56.22-1.23.64-1.71.97l-1.65-2.57c.75-.52,1.68-1.04,2.61-1.38,1.38-.53,2.72-.64,3.92-.64,1.6,0,3.73.3,5.18,1.68.67.64,1.46,1.75,1.46,3.5,0,1.16-.41,2.24-1.31,3.1-.37.37-.96.82-1.83,1.08.9.23,1.76.71,2.39,1.34ZM470.41,362.24h-2.72v-7.42l-4.06.78v18.54h7.12c2.28,0,4.25-.34,5.59-1.72.7-.75,1.45-2.01,1.45-4.14,0-1.12-.19-2.83-1.53-4.21-1.75-1.79-4.32-1.83-5.85-1.83ZM472.73,370.41c-.75.75-1.86.82-2.68.82h-2.35v-6.07h2.24c.86,0,1.98.07,2.76.82.71.67.79,1.68.79,2.28,0,.56-.08,1.49-.75,2.16ZM481.73,356.91c-.67.63-1.45,1.79-1.45,3.65,0,1.5.52,2.54,1.19,3.25.64.63,1.57,1.23,2.87,1.34v.07c-.6.11-1.08.37-1.57.86-.52.48-.75,1-.97,1.64l-.56,1.68c-.19.56-.37,1.08-.82,1.49-.19.15-.6.45-1.46.67l-.6.15.71,2.79,1.45-.11c.82-.07,2.42-.19,3.43-1.19.63-.64.9-1.53,1.12-2.31l.52-1.87c.15-.52.29-1.27.82-1.75.6-.56,1.27-.59,1.98-.59h1.72v7.46h4.07v-18.87h-6.98c-1.79,0-3.95.19-5.48,1.64ZM490.12,358.24v5.52h-2.31c-1.08,0-1.98-.34-2.5-.82-.64-.59-.75-1.38-.75-2.01,0-.52.11-1.38.75-1.98.74-.71,1.86-.71,2.46-.71h2.35ZM521.1,364.14c.82-.26,1.45-.74,1.86-1.19.74-.82,1.04-1.71,1.04-2.91,0-.93-.19-2.24-1.23-3.28-1.42-1.42-3.54-1.49-4.88-1.49h-7.84v18.87h8.43c3.06,0,4.52-1.27,4.82-1.53.63-.6,1.53-1.79,1.53-3.91,0-1.27-.34-2.35-1.27-3.29-.26-.26-1.08-1.01-2.46-1.27ZM514.13,358.03h2.8c.78,0,1.68.03,2.31.59.6.53.71,1.31.71,1.87s-.12,1.23-.68,1.75c-.7.67-1.82.74-2.5.74h-2.65v-4.95ZM519.79,370.63c-.67.59-1.79.75-2.68.75h-2.98v-5.71h2.98c.74,0,1.75.04,2.46.56.86.64.97,1.68.97,2.42,0,.64-.08,1.38-.75,1.98ZM540.05,369.62l1.94,2.5c-1.72,1.72-3.51,2.5-6.04,2.5-5.14,0-8.02-3.62-8.02-9.7,0-6.86,4.11-10.14,8.32-10.14,2.05,0,3.55.48,5.22,2.05l-2.05,2.72c-1.12-1.01-2.09-1.45-3.17-1.45-1.31,0-2.38.67-2.98,1.9-.56,1.16-.78,2.91-.78,5.26,0,2.57.41,4.22,1.27,5.15.59.67,1.49,1.08,2.5,1.08,1.31,0,2.57-.63,3.81-1.86ZM552.56,354.78c-2.39,0-4.25.78-5.78,2.54-1.64,1.86-2.34,4.06-2.34,7.38,0,6.08,3.35,9.92,8.69,9.92,2.54,0,4.81-.82,6.79-2.5l-1.6-2.5c-1.41,1.23-2.94,1.86-4.7,1.86-3.69,0-4.66-2.75-4.66-5.37v-.33h11.26v-.86c0-4.4-.82-6.71-2.46-8.2-1.61-1.46-3.32-1.94-5.19-1.94ZM548.98,362.72c0-3.06,1.27-4.89,3.58-4.89,2.05,0,3.39,1.83,3.39,4.89h-6.98ZM575.79,358.32h-7.23v15.81h-4.07v-18.87h11.79l-.49,3.06ZM591.86,355.26h-11.49l-.08,2.76c-.04,2.04-.18,4.32-.78,6.82-.49,1.97-1.27,4.17-2.46,6.3h-1.45v8.32h3.8v-5.34h11v5.34h3.8v-8.32h-2.35v-15.89ZM587.8,371.15h-7.08c.78-1.53,1.57-3.43,2.01-5.22.41-1.72.71-3.92.78-5.93l.08-1.76h4.21v12.91ZM611.14,367.95l.08-5.41c.03-2.8.03-3.81-.3-4.62-.82-2.05-2.8-3.14-5.75-3.14s-5.18.78-8.02,2.57l1.83,2.94s2.91-2.16,5.63-2.16c2.24,0,2.62,1.15,2.62,3.32v1.01h-1.27c-6.04,0-9.32,2.2-9.32,6.56,0,3.28,1.94,5.6,6.26,5.6,2.01,0,3.65-.53,5.18-2.24.45,1.19,1.41,2.09,2.57,2.53l2.13-2.61c-1.46-1.01-1.68-1.82-1.64-4.36ZM607.07,369.74c-.82,1.19-2.09,1.9-3.39,1.9-1.64,0-2.61-1.04-2.61-2.83,0-2.39,1.23-3.58,5.33-3.58.3,0,.74.04.74.04l-.08,4.48ZM636.53,369.62l1.94,2.5c-1.72,1.72-3.51,2.5-6.05,2.5-5.14,0-8.01-3.62-8.01-9.7,0-6.86,4.1-10.14,8.32-10.14,2.05,0,3.54.48,5.22,2.05l-2.05,2.72c-1.12-1.01-2.08-1.45-3.17-1.45-1.31,0-2.39.67-2.98,1.9-.56,1.16-.78,2.91-.78,5.26,0,2.57.42,4.22,1.27,5.15.59.67,1.49,1.08,2.5,1.08,1.31,0,2.57-.63,3.8-1.86ZM647.79,355.26h14.55l-.52,3.06h-4.88v15.81h-4.07v-15.81h-5.07v-3.06ZM671.14,354.78c-5,0-8.24,3.88-8.24,9.92s3.21,9.92,8.32,9.92,8.35-3.77,8.35-9.88-3.05-9.96-8.42-9.96ZM671.25,371.56c-2.43,0-3.8-1.6-3.8-7.16,0-4.59,1.11-6.57,3.69-6.57,2.39,0,3.88,1.61,3.88,6.94,0,4.81-1.34,6.78-3.76,6.78ZM692.32,355.26c-1.45,0-2.65.34-3.81,1.15-.81.6-1.42,1.31-1.86,2.09l-.19-.04.15-1.15c.15-1.08.6-3.55,3.36-4.7l4.88-2.01c.56-.22,1.27-.48,2.21-.89.86-.37,1.41-.64,2.12-1.12l-1.49-3.32-1.46.78-5.89,2.5c-1.35.56-2.8,1.35-4.07,2.58-1.16,1.15-1.79,2.27-2.27,3.76-.86,2.65-.9,5.52-.9,7.76,0,3.36.12,6.75,2.28,9.33,1.64,1.93,3.72,2.65,6.04,2.65,2.94,0,4.92-1.23,6.15-2.65,1.04-1.23,2.24-3.43,2.24-7.12,0-4.14-1.46-6.27-2.13-7.08-1-1.2-2.68-2.5-5.37-2.5ZM694.29,369.99c-.74,1.23-1.75,1.56-2.83,1.56s-2.09-.34-2.83-1.56c-.68-1.16-.97-3.36-.97-5.03,0-1.53.19-3.77.97-5.07.74-1.23,1.75-1.57,2.83-1.57s2.09.34,2.83,1.57c.75,1.27.97,3.65.97,5.07,0,1.49-.19,3.73-.97,5.03ZM711.41,354.78c-5,0-8.25,3.88-8.25,9.92s3.21,9.92,8.32,9.92,8.35-3.77,8.35-9.88-3.06-9.96-8.42-9.96ZM711.52,371.56c-2.42,0-3.8-1.6-3.8-7.16,0-4.59,1.12-6.57,3.7-6.57,2.39,0,3.88,1.61,3.88,6.94,0,4.81-1.35,6.78-3.77,6.78ZM725.14,349.23l2.05-1.16c.19.26.49.67.78,1,.6.64,1.53,1.23,3.21,1.23,1.53,0,2.39-.53,3.06-1.23.3-.33.6-.74.78-1l2.05,1.16c-.63,1.71-1.76,2.65-2.09,2.87-1.27.97-2.72,1.16-3.87,1.16s-2.61-.19-3.88-1.16c-.33-.22-1.46-1.15-2.09-2.87ZM738.79,354.78v19.36h-4.07v-8.58c0-1.83.04-3.14.18-4.89h-.07c-.52,1.49-1.3,3.1-1.9,4.18l-5.19,9.28h-4.25v-18.57l4.07-.78v9.88c0,1.34-.08,2.98-.15,4.26h.08c.67-1.83,1.38-3.29,2.02-4.4l5.03-8.99,4.25-.75Z"/>
    <g>
      <path class="st1" d="M743.6,263.71c-1.49-2.27-4.98-3.14-11.82-3.65-6.83-.5-33.08-3.15-50.93.92-2.8.64-2.99,3.89-2.42,5.31,2.65,6.62,15.16,1.83,25.86,2.43-.25,1.45-1.17,3.68-1.35,4.95-.01.1-.03.2-.04.3-1.2,11.28-1.31,25.72-1.02,39.26,0,.07-.01.13-.02.2-.39,4.98-.8,9.69-1.09,13.55-.79,10.35,11.85,8.02,11.76,3.12-.12-7.08.7-20.08,1.64-32.43.89-11.73,1.88-22.87,2.25-27.76,8.02-2.49,15.53,3.07,22.66.93,5.53-1.65,5.5-5.67,4.53-7.15Z"/>
      <path class="st1" d="M427.73,259.31c-2.06,0-3.6,1.13-4.62,3.38-2.32,4.74-4.65,14.4-4.68,14.51-1.18,6.33-6.78,20.74-6.78,20.74-.14.35-2.84-3.39-4.04-6.3-1.46-3.48-3.41-7.25-5.87-11.29-1.13-1.89-2.7-7.09-6.18-12.33-1.76-2.75-3.08-4.81-3.98-6.17-1.16-1.56-2.52-2.34-4.08-2.34-1.36,0-2.55.51-3.58,1.52-1.03,1.01-1.54,2.2-1.54,3.56,0,.86.25,1.76.75,2.69,1.19,2.26,3.21,8.24,7.52,14.67,3.55,5.3,6.08,9.78,7.61,13.43,1.96,4.67,5.8,10.71,11.54,18.1,0,0-.06.09-.18.24-.11.16-.28.38-.47.65-3.8,10.59-7.01,14.47-13,14.47-.27,0-.55,0-.83,0-.56.01-1.11.06-1.64.14-2.39.56-3.58,2.09-3.58,4.58,0,1.46.46,2.65,1.39,3.58.93.93,2.12,1.39,3.58,1.39s2.78-.05,4.09-.14c.19-.01.37-.03.56-.04,8.59-2.13,13.92-6.16,18-19.25.09-.3.25-.58.38-.87,1.4-3.2,10.26-38.5,10.31-38.6.16-.28,4.45-13.85,4.45-15.34,0-1.39-.51-2.57-1.51-3.53-1.01-.96-2.21-1.44-3.61-1.44Z"/>
      <path class="st1" d="M495.35,262.5c-4.43,0-9.07,2.63-11.24,5.22.44-4.51.66-6.48.66-5.91,0-1.71-.58-3.18-1.74-4.4-1.16-1.22-2.59-1.84-4.3-1.84-3.33,0-4.31,3.22-4.9,7.69-.23,1.78-2.19,2.77-3.8,1.96-2.9-1.46-6.68-3.14-8.89-3.14-10.06,0-12.81,3.83-18.02,11.5-4.6,6.7-6.12,16.4-6.12,25.73s.86,16.86,5.19,23.3c4.95,7.4,11.51,9.78,20.22,9.78,6.39,0,6.13-.11,10.6-2.3,0,2.23-.2-.22-.2,3.98,0,1.88.6,3.45,1.81,4.7,1.2,1.25,2.75,1.87,4.63,1.87s2.32-.19,3.53-1.44c1.2-1.25.59-8.21.59-8.21,0,0,4-.04,8.34,1.23,8.75,2.55,14.2-1.06,19.54-7.67,5-6.13,5.48-9.82,5.48-19.15,0-10.12,1.7-23.14-1.41-29.44-4.16-8.23-11.53-13.45-19.97-13.45ZM473.41,287.49c-.5,6.91-1.44,19.72-1.38,27.88-.57.26-1.55,8.32-8.91,7.12-4.75-.78-10.51-1.3-13-6.3-2.01-3.94-2.55-10.11-2.55-15.41s2.03-16.08,4.31-20.33c2.76-5.25,4.23-7.48,9.26-7.48.34,0,.78.07,1.29.19,6.53,1.55,11.76,3.6,10.97,14.33ZM506.74,308.28c0,5.69-1.42,7.69-3.96,11.24-2.89,4.03-14.3,4.2-19.42-.92,0-10.95,1.81-28.53,1.25-38.48,1.66-4.22,4.16-5.23,6.57-6.54,3.24-1.8,7.55-.71,9.7.84,6.37,4.58,5.86,17.97,5.86,33.87Z"/>
      <path class="st1" d="M568.29,280.96c-.29-6.48-1.85-12.5-3.76-15.28-2.21-3.18-5.67-5.68-8.79-6.45-6.53-1.61-13.44,1.48-16.22,5.14-2.78,3.66-5.86,11.15-5.62,16.59.11,2.51,3.84,4.75,7.25,1.76,3.72-3.26,1.6-11.25,8.01-13.43,2.24-.76,3.91-.36,6.94,3.82,2.81,3.88,4.2,13.35,2.18,17.2-4.2,8.02-13.47,3.07-19.38,4.3-6.14,1.27-11.35,8.33-12.86,16.52-1.76,9.54,2.59,18.21,7.93,20.39,15.92,6.47,30.24-.1,33.54-4.4,3.1-4.04-1.77-4.33-3.42-9.09-1.65-4.77,4.37-32.88,4.19-37.06ZM553.39,320.8c-.24,1.83-1.63,3.02-3.22,3.93-3.49,1.46-8.22,1.76-11.25-.96-2.43-3.27-3.63-7.31-2.78-11.68,1.08-4.29,4.6-8.88,9.31-9.49,3.33.06,7.57-.73,8.9,2.96.86,5.33-2.43,9.92-.96,15.24Z"/>
      <path class="st1" d="M677.6,286.44c-5.08-2.82-3.93-9.54-5.74-14.14-1.5-3.8-3.95-7.28-7.78-9.75-5.22-3.36-15.49-2.76-19.23,1.22-4.76,5.05-7.17,9.14-9.52,16.54-2.24,7.04-4.4,17.71-3.47,27.9,1.46,16,11.72,21.94,22.64,25.31,8.39,2.59,17.96-4.55,20.77-8.68,3.62-5.32,3.93-17.88-3.88-17.1-6.51.65-3.41,7.3-5.64,11.68-1.62,3.2-5.74,5.06-9.02,4.15-2.58-.72-14.04-5.57-14.06-13.72-.01-6.72-3.43-11.88.83-15.72,3.06-2.76,9.03-.15,15.25.09,4.6.17,17.11,2.88,19.7-3.37.87-2.1.08-3.89-.86-4.41ZM662.5,282.97c-3,1.96-8.84-.51-12.81-.42-1.32.04-2.32-.49-2.42-1.68-.12-1.56,2.14-8.69,6.39-10.23,3.48-1.26,7.34,1.26,8.41,3.99,1.07,2.74,2.47,7,.42,8.34Z"/>
      <path class="st1" d="M615.49,263.31c-.46,7.51-.99,12.23-1.28,21.61,0,.26,0,1.25.02,2.67-.11.09-.19.26-.24.5-1.74,8.41-16.68,6.77-22.6,6.21-.92-.09-1.73,0-2.44.21.02-.64.03-1.13.04-1.42.14-3.13-.14-10.36.72-12.88.86-2.52,1.18-15.95.06-18.52-1.13-2.6-5.34-2.88-7.91-1.77-5.43,2.35-3.45,9.11-3.45,12.81,0,9.73-1.26,13.63.16,22.12,1.42,8.49.45,31.3.94,35.88.44,4.21,7.73,3.83,8.32-.62.34-2.5.66-15.58.88-25.56.7.21,1.5.31,2.42.24,11.81-.93,22.01-4.88,23.21-.2.03.12.15.19.33.24.01.14.02.27.03.36.62,5-2.96,21.96.48,27.91,1.15,2,7.55,2.13,8.53-.78,1-2.98.73-46.82.59-48.38-.37-3.99.54-7.89,1.12-17.31.58-9.42-9.68-7.48-9.94-3.33Z"/>
    </g>
  </g>
</svg>